<?xml version="1.0" standalone="no"?>
<!DOCTYPE svg PUBLIC "-//W3C//DTD SVG 20010904//EN"
 "http://www.w3.org/TR/2001/REC-SVG-20010904/DTD/svg10.dtd">
<svg version="1.0" xmlns="http://www.w3.org/2000/svg"
 width="260.000000pt" height="260.000000pt" viewBox="0 0 260.000000 260.000000"
 preserveAspectRatio="xMidYMid meet">
<metadata>
Created by potrace 1.11, written by Peter Selinger 2001-2013
</metadata>
<g transform="translate(0.000000,260.000000) scale(0.100000,-0.100000)"
fill="#000000" stroke="none">
<path d="M1275 1911 c-3 -5 -2 -12 3 -15 5 -3 9 1 9 9 0 17 -3 19 -12 6z"/>
<path d="M161 1747 c-8 -10 -7 -18 2 -31 12 -17 15 -17 30 -2 17 18 13 46 -8
46 -7 0 -18 -6 -24 -13z"/>
<path d="M1106 1722 c-3 -5 1 -9 9 -9 8 0 12 4 9 9 -3 4 -7 8 -9 8 -2 0 -6 -4
-9 -8z"/>
<path d="M999 1673 c-1 -5 -2 -17 -3 -27 -1 -11 -7 -21 -15 -24 -8 -3 -11 0
-7 6 11 18 -5 40 -28 38 -22 -1 -23 -2 -7 -26 15 -22 15 -24 -1 -18 -13 5 -15
3 -11 -9 4 -10 2 -14 -4 -10 -5 3 -10 0 -10 -8 0 -8 5 -13 11 -12 6 1 10 -6 8
-15 -2 -10 2 -18 8 -18 6 0 8 5 5 10 -9 14 8 13 23 -2 16 -16 15 -29 -2 -22
-7 3 -16 -2 -20 -12 -5 -14 -4 -15 9 -4 14 12 19 7 16 -13 -1 -5 3 -6 9 -2 5
3 10 1 10 -5 0 -6 5 -8 12 -4 8 5 9 2 5 -9 -9 -24 6 -21 21 4 7 12 16 18 19
15 3 -3 0 -12 -7 -21 -7 -9 -8 -15 -2 -15 6 0 13 6 15 13 4 10 6 10 6 0 1 -7
6 -13 12 -13 5 0 7 5 4 10 -3 6 -1 10 4 10 6 0 11 -4 11 -10 0 -5 5 -10 11
-10 8 0 7 6 -2 17 -12 15 -12 16 4 10 10 -4 21 -7 23 -7 3 0 0 -9 -6 -19 -8
-16 -19 -19 -60 -17 -43 3 -47 2 -35 -11 16 -15 20 -35 8 -31 -5 1 -24 -4 -43
-11 -19 -8 -38 -13 -42 -12 -5 0 -8 -5 -8 -13 0 -10 -7 -13 -20 -11 -12 2 -18
0 -14 -6 8 -14 -16 -40 -30 -32 -7 4 -6 1 1 -9 11 -12 9 -18 -6 -32 -11 -10
-17 -25 -14 -33 4 -9 -1 -20 -11 -25 -13 -8 -15 -13 -5 -24 6 -8 7 -14 2 -14
-5 0 -9 -9 -9 -20 0 -11 4 -20 9 -20 5 0 4 -6 -2 -14 -8 -9 -8 -16 -2 -20 5
-4 8 -15 6 -26 -2 -11 2 -20 8 -20 7 0 6 -4 -3 -10 -9 -6 -10 -10 -3 -10 6 0
15 -10 18 -22 11 -36 49 -88 64 -88 33 0 -1 -12 -38 -13 -42 -2 -45 0 -43 43
1 18 -1 21 -7 11 -5 -8 -7 -24 -5 -36 3 -19 0 -22 -23 -17 -20 4 -24 2 -18 -9
8 -12 6 -12 -8 0 -9 7 -17 10 -17 7 0 -4 -9 -2 -20 4 -11 6 -20 7 -20 3 0 -10
-92 -9 -108 1 -7 4 -12 3 -12 -2 0 -5 -7 -9 -14 -9 -11 0 -12 5 -6 18 10 18
25 19 50 5 12 -7 13 -7 2 5 -7 8 -17 15 -23 15 -5 1 -11 2 -14 3 -2 0 3 20 11
44 15 41 22 63 23 80 1 5 5 6 10 3 10 -6 25 24 16 32 -3 3 -5 -1 -5 -8 0 -7
-3 -10 -6 -7 -4 4 -1 14 6 22 7 9 14 27 14 41 1 14 8 29 15 33 7 5 12 11 11
15 -4 18 14 67 28 76 9 5 12 10 5 10 -15 0 -5 36 15 52 13 11 15 10 10 -4 -4
-9 -1 -19 6 -21 10 -4 12 1 9 14 -3 11 0 19 6 19 7 0 9 -6 5 -12 -6 -10 -4
-10 7 0 16 15 33 16 23 0 -5 -7 -3 -8 6 -3 9 6 12 4 8 -6 -4 -10 1 -15 13 -15
12 0 15 4 9 12 -6 6 -6 15 -2 19 4 5 2 5 -4 2 -13 -8 -39 37 -30 52 4 7 1 9
-8 5 -9 -3 -14 -9 -11 -13 2 -4 -30 -8 -72 -9 -41 -1 -80 -5 -85 -8 -14 -9 11
-24 40 -24 20 0 22 -4 16 -22 -3 -13 -13 -35 -20 -49 -7 -15 -10 -29 -7 -33 4
-3 1 -6 -6 -6 -7 0 -10 -3 -8 -7 8 -13 -12 -55 -22 -48 -5 3 -13 1 -16 -5 -4
-6 -1 -9 7 -8 7 2 11 -4 10 -12 -2 -8 -5 -23 -7 -32 -2 -9 -9 -26 -15 -37 -6
-12 -8 -21 -4 -21 3 0 1 -7 -6 -15 -7 -8 -9 -15 -6 -15 4 0 1 -10 -6 -22 -13
-25 -15 -30 -17 -53 0 -8 -8 -15 -17 -15 -13 0 -14 3 -5 14 10 11 8 17 -6 25
-10 6 -14 11 -9 11 4 0 2 10 -6 23 -8 12 -27 56 -41 97 -14 41 -38 106 -52
145 -14 38 -25 73 -25 77 0 5 16 8 35 8 23 0 35 5 35 14 0 10 -22 14 -91 15
-68 2 -90 -1 -87 -10 2 -7 17 -14 34 -16 34 -5 43 -12 49 -41 2 -11 9 -30 15
-42 6 -12 13 -29 15 -38 2 -9 24 -73 48 -142 24 -69 47 -139 51 -156 7 -31 6
-31 -29 -28 -33 2 -38 -1 -70 -52 -19 -30 -35 -56 -35 -58 0 -4 -53 -96 -267
-464 -52 -90 -93 -166 -89 -169 3 -3 195 -6 427 -7 l422 -1 14 22 c8 12 21 19
29 16 12 -5 12 -7 -1 -17 -15 -10 -14 -12 4 -12 11 0 18 3 15 7 -5 8 49 5 63
-4 11 -7 23 1 23 15 0 4 -16 6 -36 3 -31 -4 -34 -2 -24 10 8 9 23 13 38 10 14
-2 32 1 39 7 13 11 19 -3 6 -16 -11 -11 -12 -36 -2 -36 6 0 9 7 7 16 -2 10 2
19 9 21 8 3 11 -3 8 -17 -2 -11 0 -18 6 -15 5 4 6 11 3 17 -4 6 -1 8 7 6 8 -3
13 -11 12 -17 -2 -6 2 -11 7 -11 6 0 11 5 11 10 1 6 3 15 4 20 1 6 3 13 4 18
1 4 5 0 11 -8 6 -9 5 -20 -3 -30 -8 -10 -5 -9 9 3 25 21 41 23 24 2 -9 -10 -9
-15 -1 -15 10 0 15 13 12 32 0 4 8 6 19 5 18 -1 24 -10 21 -29 0 -5 4 -8 10
-8 6 0 9 6 6 14 -3 8 1 20 9 27 13 10 14 8 10 -16 -3 -15 -2 -25 1 -21 12 11
12 40 1 53 -7 9 -7 13 0 13 6 0 13 -4 16 -9 4 -5 17 -8 31 -6 16 1 24 -2 22
-9 -2 -6 -14 -10 -26 -9 -11 2 -21 -2 -21 -8 0 -5 5 -7 10 -4 5 3 10 2 10 -4
0 -5 -6 -12 -12 -14 -7 -3 1 -4 17 -2 23 2 30 7 31 23 1 24 21 52 36 52 6 0 4
-7 -3 -17 -8 -9 -14 -26 -14 -38 -1 -17 5 -21 27 -20 16 1 34 7 40 13 15 15
38 16 38 1 0 -5 -4 -8 -9 -4 -5 3 -12 1 -15 -4 -4 -5 2 -8 11 -6 10 1 17 10
17 19 -2 20 10 21 25 2 9 -11 9 -15 -1 -19 -7 -3 -3 -4 9 -4 12 1 19 5 17 9
-8 13 11 9 25 -4 11 -10 13 -10 7 0 -4 6 -3 12 3 12 5 0 11 -5 13 -12 2 -6 10
-8 16 -4 24 15 11 24 -30 22 -24 -1 -49 2 -55 7 -15 11 -17 37 -3 37 5 0 9 -5
7 -12 -1 -9 27 -12 109 -13 85 0 110 3 107 12 -3 7 -9 11 -14 8 -4 -3 -13 5
-20 17 -6 13 -23 33 -38 45 -14 12 -21 22 -15 23 5 0 15 -5 21 -11 8 -8 13 -7
18 3 5 7 5 10 0 6 -4 -4 -14 -3 -22 3 -10 9 -17 8 -28 -1 -18 -15 -20 1 -3 18
8 8 17 8 32 0 18 -9 17 -7 -4 14 -14 13 -27 23 -29 21 -2 -1 -10 2 -18 8 -10
9 -13 8 -13 -1 0 -20 -13 -3 -17 21 -3 19 -2 19 19 5 12 -9 27 -16 33 -16 5 0
2 5 -8 11 -18 10 -18 12 0 32 12 15 13 18 2 9 -9 -6 -19 -9 -23 -5 -11 11 -66
12 -66 2 0 -5 -5 -9 -11 -9 -5 0 -7 5 -4 10 4 6 1 17 -5 25 -12 15 0 21 14 8
4 -4 25 -8 47 -9 22 -1 37 1 34 5 -3 3 -22 6 -42 6 -20 1 -38 6 -40 12 -2 6 7
9 22 7 25 -2 26 -1 11 15 -9 10 -13 21 -9 26 5 4 2 4 -6 0 -11 -6 -13 -4 -8 9
4 10 3 15 -3 11 -9 -5 -32 15 -67 59 -16 18 -17 30 -3 21 6 -3 10 -1 10 5 0 7
-7 9 -16 6 -10 -4 -14 -2 -11 6 2 7 10 12 16 11 6 -2 11 2 11 7 0 13 -17 13
-25 0 -3 -5 -11 -10 -17 -10 -6 0 -3 9 7 20 11 12 13 20 6 20 -7 0 -9 5 -6 10
3 6 -1 13 -9 16 -9 3 -16 10 -16 16 0 5 6 6 13 2 6 -4 9 -4 5 1 -4 4 -2 15 4
24 10 13 10 14 -2 3 -18 -16 -33 -16 -24 1 5 8 2 8 -9 -2 -10 -8 -17 -9 -17
-3 0 6 5 14 10 17 6 3 10 12 10 18 0 8 -3 8 -9 -1 -6 -10 -11 -10 -21 4 -8 9
-15 21 -16 28 -5 26 -23 61 -23 44 -1 -9 -4 -18 -8 -21 -5 -2 -2 -2 6 0 8 2
11 -2 8 -12 -4 -8 -2 -17 3 -20 6 -4 10 -11 10 -17 0 -6 -13 2 -29 18 -19 19
-26 33 -20 40 5 6 5 15 1 19 -4 5 -2 5 5 1 7 -3 14 2 18 14 3 11 11 20 16 20
6 0 8 -4 5 -8 -3 -5 1 -9 10 -9 10 0 12 7 8 21 -4 15 -3 17 4 7 8 -11 14 -11
33 3 13 9 28 16 34 16 5 -1 -2 -8 -17 -16 -28 -15 -37 -34 -17 -34 5 0 8 -4 5
-8 -3 -5 32 -8 77 -7 48 1 85 -3 90 -9 4 -6 5 1 3 17 -3 15 0 27 5 27 5 0 9
-5 9 -12 0 -6 3 -8 7 -5 3 4 12 2 20 -5 7 -6 16 -8 20 -4 3 3 1 6 -6 6 -7 0
-9 5 -5 12 4 6 3 8 -3 5 -6 -4 -16 0 -23 8 -9 10 -9 15 -1 15 6 0 11 -4 11 -9
0 -5 13 -8 30 -6 17 2 36 -2 44 -10 17 -17 30 -7 14 12 -15 19 2 36 22 22 12
-9 12 -10 -3 -5 -12 4 -17 2 -15 -6 3 -7 10 -14 16 -14 7 -1 15 -3 20 -4 4 -1
10 -2 15 -1 4 0 7 -4 7 -9 0 -5 3 -9 8 -8 18 6 109 -26 125 -44 9 -11 17 -16
17 -11 0 5 -6 15 -12 22 -11 11 -9 13 10 8 12 -3 22 -1 22 5 0 5 4 6 10 3 5
-3 21 2 35 11 14 9 25 13 25 8 0 -4 5 -3 12 4 17 17 31 15 25 -2 -4 -11 -1
-13 10 -9 10 4 14 2 10 -4 -3 -5 0 -10 8 -10 10 0 12 4 5 12 -6 8 -5 18 6 31
14 18 15 18 8 -6 -5 -20 -4 -23 7 -12 17 16 32 16 23 0 -6 -10 -4 -10 7 0 18
17 34 15 20 -2 -9 -11 -9 -16 1 -22 7 -4 10 -4 6 1 -4 4 2 16 14 26 19 17 17
24 -4 20 -5 0 -8 5 -8 13 0 19 -42 96 -52 96 -4 0 -8 9 -8 19 0 11 -3 21 -7
23 -5 2 -19 24 -32 51 -13 26 -31 47 -40 47 -14 0 -14 2 -1 10 12 8 12 10 -5
10 -17 0 -17 2 -5 10 13 9 7 14 -12 11 -4 0 -5 6 -2 14 4 8 1 15 -5 15 -6 0
-11 9 -11 20 0 10 -8 24 -17 29 -10 6 -15 11 -11 11 4 0 1 12 -7 27 -18 35
-14 38 27 17 34 -18 73 -54 80 -75 2 -7 11 -10 22 -6 14 6 15 10 5 29 -17 33
-49 63 -86 82 -18 9 -35 16 -38 16 -40 -1 -53 3 -58 18 -8 23 -40 76 -49 80
-5 2 -8 9 -8 16 0 7 -8 21 -17 32 -10 10 -20 28 -21 39 -2 11 -10 24 -18 28
-8 5 -12 12 -9 17 7 11 -22 21 -42 13 -10 -4 -14 -2 -10 4 3 5 0 10 -8 10 -8
0 -17 -9 -21 -19 -3 -10 -10 -16 -15 -13 -5 4 -6 -2 -2 -12 6 -16 5 -16 -11
-4 -17 14 -16 16 4 31 20 15 20 16 1 16 -11 0 -18 -3 -16 -6 2 -3 -6 -18 -18
-33 -21 -26 -23 -27 -45 -12 -17 12 -20 20 -13 33 7 14 5 18 -9 18 -13 0 -16
-4 -10 -12 6 -6 7 -14 3 -17 -9 -9 -23 -9 -22 1 3 19 -2 29 -17 29 -15 0 -15
-2 0 -13 21 -15 22 -24 5 -35 -15 -9 -29 -3 -29 12 0 6 6 7 13 3 8 -5 8 -2 -2
9 -17 22 -33 22 -29 1 2 -10 -2 -19 -9 -21 -8 -3 -11 5 -8 24 2 15 2 22 -1 15
-5 -10 -9 -10 -22 0 -15 11 -15 11 -5 -3 7 -9 10 -19 6 -22 -9 -9 -23 -9 -22
1 5 27 -3 31 -55 23 -4 0 -6 -7 -3 -15 3 -8 -2 -20 -10 -28 -15 -11 -16 -11
-10 5 4 10 3 16 -2 13 -5 -3 -12 1 -15 10 -5 12 -2 15 11 10 14 -6 15 -4 7 4
-9 9 -17 9 -32 1 -24 -13 -35 -14 -29 -3 3 4 -7 8 -21 8 -15 1 -21 -1 -14 -3
6 -3 9 -9 6 -14 -3 -6 -12 -5 -21 3 -17 14 -65 19 -57 6 3 -4 1 -8 -3 -8 -5 0
-13 -10 -18 -22 -6 -13 -17 -21 -25 -19 -38 9 -95 5 -92 -6 1 -7 -2 -13 -8
-13 -13 0 -13 27 0 35 5 3 9 17 8 30 -2 25 -7 32 -9 18z m-29 -34 c0 -5 -4 -9
-10 -9 -5 0 -10 7 -10 16 0 8 5 12 10 9 6 -3 10 -10 10 -16z m230 6 c15 -18
-1 -20 -19 -2 -10 8 -12 8 -7 0 8 -14 -10 -27 -26 -17 -7 5 -5 11 7 21 24 17
30 16 45 -2z m174 9 c9 -3 14 -10 11 -14 -10 -16 16 -22 32 -8 15 12 15 11 5
-9 -7 -12 -9 -29 -6 -38 4 -9 3 -15 -2 -14 -26 4 -31 -4 -29 -44 1 -24 4 -48
8 -54 3 -5 0 -19 -8 -29 -18 -24 -18 -31 -1 -31 8 0 12 6 8 15 -4 11 1 11 22
-3 15 -10 29 -15 33 -11 3 3 1 6 -6 6 -7 0 -9 5 -5 12 5 8 10 6 19 -5 10 -14
12 -14 23 4 7 11 8 19 2 19 -5 0 -10 -6 -10 -12 0 -9 -3 -8 -10 2 -7 12 -12
12 -22 2 -19 -19 -33 -14 -15 6 14 15 39 19 81 13 4 0 1 -11 -7 -24 -14 -21
-13 -24 1 -33 13 -9 13 -12 2 -19 -8 -5 -11 -4 -7 2 9 14 -8 19 -67 18 -39 0
-50 -4 -52 -18 -1 -9 2 -17 7 -17 20 0 24 -2 32 -16 14 -25 2 -26 -27 -3 -14
11 -24 25 -21 30 4 5 1 9 -4 9 -6 0 -10 6 -8 13 1 6 -6 11 -16 11 -10 -1 -16
3 -14 10 2 6 11 10 19 8 23 -4 41 23 31 45 -5 10 -8 35 -8 55 1 22 -2 35 -8
31 -5 -3 -7 0 -5 8 3 8 12 13 21 11 8 -1 18 2 22 8 4 6 -1 7 -12 3 -16 -6 -16
-5 -4 10 12 16 9 19 -15 16 -10 -1 -23 24 -18 33 6 10 8 10 28 2z m-106 -21
c26 -17 26 -17 13 0 -7 9 -9 17 -4 17 8 0 33 -42 33 -56 0 -2 -11 3 -25 12
-20 13 -28 14 -40 4 -18 -15 -20 1 -2 19 10 11 8 11 -9 0 -18 -10 -20 -16 -11
-31 7 -10 17 -16 24 -14 7 3 11 -3 10 -15 -1 -21 -17 -27 -17 -6 0 9 -3 8 -9
-2 -5 -7 -8 -33 -6 -57 2 -46 -1 -50 -24 -35 -8 5 -9 11 -3 15 5 3 10 17 10
31 0 19 -5 25 -15 21 -8 -3 -13 -1 -11 5 2 6 7 10 12 9 9 -2 26 19 26 32 0 4
-10 12 -22 18 -21 10 -21 10 -5 -3 9 -8 17 -18 17 -22 0 -5 -2 -6 -5 -3 -3 3
-19 -8 -35 -24 -24 -23 -33 -27 -48 -19 -11 6 -32 8 -47 5 -24 -4 -26 -3 -17
9 12 14 42 15 73 3 22 -9 57 30 41 46 -7 7 -12 8 -12 3 0 -6 -5 -3 -11 5 -9
12 -10 12 -5 -4 5 -14 2 -17 -10 -12 -8 3 -18 6 -21 6 -3 0 0 7 7 15 8 9 21
13 36 9 14 -4 24 -2 24 5 0 6 6 8 13 5 8 -3 20 2 27 11 16 19 15 19 48 -2z
m422 7 c0 -5 -6 -10 -12 -10 -10 0 -10 -2 -1 -8 9 -6 7 -11 -7 -20 -23 -14
-24 -12 -8 23 11 25 28 34 28 15z m37 -12 c0 -13 -1 -18 -4 -11 -2 7 -12 9
-21 6 -15 -6 -15 -5 -3 10 18 23 27 21 28 -5z m-153 -32 c11 -7 16 -18 12 -24
-10 -16 -24 -15 -22 1 0 6 -3 12 -9 12 -5 0 -9 -6 -9 -12 2 -17 -4 -16 -23 2
-8 9 -18 13 -22 9 -3 -4 0 -9 7 -11 6 -3 10 -8 8 -12 -3 -4 28 -7 69 -7 41 0
72 3 69 8 -6 9 32 48 48 48 7 0 3 -7 -9 -15 -12 -8 -23 -25 -25 -38 -3 -21 -8
-22 -80 -21 -71 0 -82 -4 -80 -27 1 -3 -12 -6 -28 -6 -23 0 -27 3 -19 13 6 8
16 12 22 11 8 -1 11 12 9 39 -2 34 2 43 20 51 13 6 27 6 33 1 5 -5 19 -15 29
-22z m-594 3 c11 -20 37 -21 33 -1 -4 16 80 6 93 -12 6 -9 14 -13 17 -9 4 3 7
0 7 -7 0 -9 6 -8 20 5 11 10 20 13 20 8 0 -20 -28 -35 -47 -25 -10 5 -24 7
-31 5 -7 -3 -10 1 -6 10 3 8 -1 18 -8 23 -7 4 -10 4 -6 -1 10 -11 -8 -42 -32
-55 -16 -8 -19 -7 -17 10 1 12 7 18 14 16 17 -7 28 13 14 27 -9 9 -10 7 -5 -8
7 -18 6 -18 -9 -6 -17 13 -23 6 -18 -21 0 -5 -4 -8 -9 -8 -5 0 -10 5 -10 12 0
6 -3 9 -6 5 -4 -3 3 -18 14 -32 13 -16 22 -21 24 -13 4 10 8 10 21 -1 10 -7
17 -9 17 -3 0 6 12 8 28 6 34 -6 40 -6 74 0 23 3 26 1 22 -17 -3 -12 -6 -31
-7 -41 -1 -11 -9 -22 -17 -24 -13 -5 -13 -3 0 14 14 18 14 18 -2 5 -11 -8 -18
-9 -18 -3 0 6 4 13 9 17 6 3 9 14 8 25 -1 10 -5 16 -10 13 -4 -3 -6 -11 -3
-19 3 -7 1 -16 -5 -19 -5 -4 -8 -14 -7 -22 2 -10 -8 -19 -27 -25 -53 -16 -65
-17 -65 -7 0 5 -1 12 -2 16 -2 3 7 7 20 8 12 1 22 -3 22 -8 0 -5 6 -4 13 2 8
6 16 9 19 6 2 -3 5 1 5 8 0 6 2 17 3 22 5 20 0 36 -10 30 -5 -3 -10 -1 -10 5
0 6 -10 4 -24 -5 -21 -14 -24 -14 -30 1 -5 13 -9 14 -20 4 -19 -15 -58 4 -50
24 3 7 -8 25 -25 38 -22 19 -27 28 -18 37 16 16 25 14 37 -10z m390 11 c0 -9
-23 -30 -32 -30 -4 0 -5 8 -2 18 5 13 4 14 -4 3 -10 -14 4 -51 19 -51 4 0 7
-15 7 -32 0 -18 2 -42 4 -53 2 -13 -2 -19 -11 -17 -7 1 -18 -2 -25 -7 -8 -7
-12 -5 -13 9 -1 13 4 17 22 16 16 -2 22 1 18 10 -6 17 -20 18 -26 2 -2 -7 -4
-1 -4 15 0 24 2 26 16 15 14 -12 14 -11 2 5 -11 13 -11 17 -1 17 8 0 10 3 7 6
-4 4 -13 1 -22 -6 -9 -8 -15 -8 -15 -2 0 6 5 14 10 17 8 5 7 11 0 20 -16 19 4
54 30 52 11 -1 20 -4 20 -7z m105 0 c8 -13 -46 -61 -63 -55 -7 3 -10 0 -7 -6
4 -6 13 -8 21 -5 8 3 17 -1 20 -9 8 -19 -15 -48 -32 -41 -8 3 -11 0 -7 -10 7
-19 19 -18 27 2 5 13 9 14 20 5 11 -9 15 -9 19 1 5 11 7 11 15 0 7 -11 11 -11
20 0 5 7 12 17 14 23 1 5 31 10 64 10 49 1 64 -2 73 -17 7 -11 7 -18 1 -18 -5
0 -10 5 -10 12 0 6 -3 8 -7 5 -3 -4 -12 -2 -20 4 -10 9 -13 8 -13 -1 0 -9 -4
-9 -17 1 -12 10 -15 11 -9 1 8 -14 -10 -42 -26 -42 -6 0 -5 7 2 15 11 13 11
18 0 28 -9 8 -11 8 -7 1 4 -7 -1 -22 -11 -34 -15 -18 -22 -21 -38 -13 -27 14
-60 10 -83 -11 -19 -17 -20 -17 -21 0 0 11 -1 39 -3 64 -1 25 3 45 8 45 19 1
55 26 54 38 0 9 -2 9 -6 0 -5 -15 -33 -18 -33 -4 0 8 15 15 42 20 4 0 10 -3
13 -9z m165 -10 c12 -22 6 -40 -12 -40 -7 0 -7 4 0 13 8 9 8 17 0 27 -8 12 -9
12 -4 -2 6 -20 5 -21 -18 -12 -13 5 -14 9 -5 20 16 19 26 18 39 -6z m-345 -16
c23 -25 25 -44 5 -44 -5 0 -7 6 -4 14 5 14 -32 43 -49 38 -5 -1 -6 2 -2 8 10
16 24 12 50 -16z m463 1 c-3 -3 -9 2 -12 12 -6 14 -5 15 5 6 7 -7 10 -15 7
-18z m-53 -5 c-3 -5 -11 -10 -16 -10 -6 0 -7 5 -4 10 3 6 11 10 16 10 6 0 7
-4 4 -10z m-95 -10 c0 -5 -5 -10 -11 -10 -5 0 -7 5 -4 10 3 6 8 10 11 10 2 0
4 -4 4 -10z m-320 -10 c0 -5 -4 -10 -9 -10 -6 0 -13 5 -16 10 -3 6 1 10 9 10
9 0 16 -4 16 -10z m475 0 c13 -6 15 -9 5 -9 -8 0 -22 4 -30 9 -18 12 -2 12 25
0z m-503 -18 c3 8 14 3 32 -15 20 -20 25 -31 18 -44 -11 -22 -10 -103 1 -120
10 -16 -5 -17 -20 -2 -6 6 -9 18 -6 26 5 12 1 14 -18 8 -21 -7 -22 -6 -10 8 7
9 17 14 22 11 5 -3 9 0 9 5 0 6 -7 11 -15 11 -8 0 -15 5 -15 11 0 6 7 9 15 5
8 -3 15 -1 15 3 0 10 -30 25 -45 23 -6 -1 -11 16 -11 38 0 30 3 37 12 29 8 -7
13 -6 16 3z m481 -10 c-2 -6 6 -11 16 -9 11 1 20 -2 20 -8 0 -5 10 -13 23 -17
22 -7 22 -7 -2 -5 -14 1 -24 8 -23 15 2 7 -6 11 -20 9 -13 -1 -21 3 -19 11 1
6 -7 12 -18 12 -11 0 -19 -5 -17 -12 1 -6 -6 -14 -15 -16 -10 -2 -18 1 -18 7
0 6 7 8 15 4 9 -3 15 -2 14 3 -3 20 2 25 24 22 12 -2 21 -9 20 -16z m-13 -32
c0 -5 -4 -10 -10 -10 -5 0 -10 5 -10 10 0 6 5 10 10 10 6 0 10 -4 10 -10z
m-92 -18 c2 -7 -1 -12 -8 -12 -6 0 -8 4 -5 10 3 5 -7 2 -24 -7 -20 -12 -27
-21 -20 -29 7 -8 2 -11 -14 -11 -15 0 -23 6 -24 18 -1 11 2 17 8 14 5 -4 21 3
36 15 27 21 44 22 51 2z m67 -12 c0 -15 -41 -24 -50 -11 -3 5 0 13 6 17 7 4 9
3 5 -4 -4 -7 1 -10 14 -9 21 1 27 12 10 20 -6 3 -5 4 2 3 7 -2 13 -9 13 -16z
m75 10 c18 -12 2 -12 -25 0 -13 6 -15 9 -5 9 8 0 22 -4 30 -9z m-524 -37 c-1
-16 -5 -33 -9 -40 -9 -14 9 -27 25 -17 6 4 8 3 5 -3 -4 -6 0 -16 8 -23 8 -7
15 -18 15 -24 -1 -6 -9 -1 -19 11 -17 20 -20 21 -26 6 -3 -10 -3 -14 1 -10 10
9 35 -13 28 -25 -3 -5 -23 9 -45 31 -21 23 -43 41 -48 41 -5 0 -13 5 -17 12
-5 8 -2 9 9 5 9 -3 19 -2 22 3 4 6 11 10 16 10 6 0 7 -4 4 -10 -3 -5 1 -22 10
-37 15 -26 14 -16 -1 22 -4 9 -1 15 7 15 8 0 5 6 -7 15 -19 15 -19 15 0 30 25
19 24 20 22 -12z m370 15 c4 -6 3 -8 -4 -4 -5 3 -12 0 -15 -6 -2 -7 -8 -9 -13
-5 -5 4 -2 12 6 17 19 12 17 12 26 -2z m144 -10 c0 -6 -6 -6 -14 2 -12 9 -15
8 -13 -10 1 -14 7 -20 21 -18 10 2 21 -4 23 -12 3 -9 1 -11 -4 -5 -4 6 -17 10
-27 10 -18 0 -31 29 -20 46 6 11 34 0 34 -13z m62 13 c-8 -4 -13 -11 -12 -15
1 -4 -1 -12 -4 -19 -3 -9 -1 26 3 41 1 1 7 2 14 2 9 0 9 -2 -1 -9z m-626 -37
c-3 -8 -11 -12 -16 -9 -6 4 -17 2 -25 -5 -9 -7 -15 -8 -20 0 -10 16 3 28 29
25 14 -2 25 0 25 3 -3 16 3 26 8 14 3 -7 2 -20 -1 -28z m591 14 c-3 -8 -6 -5
-6 6 -1 11 2 17 5 13 3 -3 4 -12 1 -19z m-260 -9 c2 -18 0 -19 -15 -7 -15 12
-16 11 -4 -4 8 -9 10 -23 6 -29 -4 -7 -3 -9 3 -6 6 4 15 -5 22 -19 6 -14 15
-22 21 -19 5 3 14 -5 20 -17 9 -19 9 -21 -2 -8 -7 8 -20 16 -28 18 -8 2 -20
10 -26 18 -6 7 -15 14 -19 14 -4 0 -2 -6 4 -14 9 -11 10 -20 1 -38 -11 -22
-11 -22 5 -3 16 19 17 19 30 2 7 -10 17 -18 22 -18 4 1 8 -9 8 -21 0 -13 -5
-22 -12 -20 -7 1 -13 -7 -13 -18 0 -11 6 -19 13 -17 7 1 12 -8 12 -23 0 -14
-5 -24 -11 -23 -5 1 -15 -7 -22 -17 -10 -16 -8 -18 8 -17 11 1 22 7 24 14 8
20 24 15 36 -9 11 -22 11 -23 -5 -3 -13 16 -17 17 -25 6 -9 -15 -38 -23 -52
-15 -4 3 -1 16 8 29 9 14 20 22 25 19 5 -3 9 4 9 15 0 12 -6 20 -12 18 -8 -1
-13 8 -13 23 0 15 5 24 13 22 6 -1 12 7 12 19 0 11 -4 18 -9 14 -6 -3 -14 2
-19 10 -8 15 -10 15 -21 1 -22 -27 -42 -20 -31 10 13 32 12 37 0 29 -14 -9 -8
16 8 33 9 10 10 18 2 27 -12 15 -3 45 14 45 6 0 12 -9 13 -21z m113 11 c0 -5
-8 -10 -17 -10 -15 0 -16 2 -3 10 19 12 20 12 20 0z m67 -12 c-3 -8 -6 -5 -6
6 -1 11 2 17 5 13 3 -3 4 -12 1 -19z m-27 2 c0 -5 -6 -10 -13 -10 -7 0 -13 -9
-13 -20 0 -11 6 -20 13 -20 16 0 17 -16 1 -26 -6 -4 -8 -3 -5 3 4 6 1 13 -6
16 -18 7 -15 46 4 58 18 11 19 11 19 -1z m170 6 c0 -2 -7 -7 -16 -10 -8 -3
-12 -2 -9 4 6 10 25 14 25 6z m-301 -33 c-7 -10 -2 -8 12 5 28 24 39 28 39 11
0 -5 -4 -7 -10 -4 -9 5 -14 -7 -12 -27 1 -3 -5 -11 -13 -18 -20 -16 -42 25
-24 46 17 21 25 8 8 -13z m-213 0 c-8 -9 26 -62 44 -68 8 -3 20 -13 27 -24 11
-17 9 -19 -25 -16 -20 1 -38 8 -40 15 -3 7 0 10 5 7 5 -3 10 0 10 6 0 20 -33
18 -52 -3 -17 -19 -12 -46 6 -35 5 4 9 1 9 -4 0 -6 -7 -11 -15 -11 -8 0 -15
-4 -15 -10 0 -5 7 -6 17 -3 12 5 14 3 8 -7 -4 -7 -9 -23 -11 -36 -2 -18 2 -22
22 -19 15 1 23 -2 21 -9 -2 -6 -12 -11 -22 -11 -10 0 -20 -7 -22 -15 -4 -12
-3 -12 5 -2 7 11 10 10 16 -3 9 -24 8 -27 -6 -19 -7 4 -8 3 -4 -4 4 -7 1 -12
-6 -12 -8 0 -5 -5 6 -11 27 -16 63 20 48 48 -6 11 -7 25 -2 33 5 8 7 17 5 20
-2 4 9 7 25 7 25 0 28 -3 19 -18 -14 -26 -34 -37 -25 -13 5 14 4 16 -4 8 -9
-9 -9 -17 0 -33 9 -19 7 -26 -20 -52 -16 -17 -27 -35 -24 -41 4 -6 1 -8 -7 -6
-8 3 -13 11 -11 17 1 6 -3 11 -8 11 -17 0 -11 -21 13 -41 12 -10 17 -18 10
-19 -6 0 -15 5 -18 10 -10 17 -36 -10 -30 -30 6 -18 -16 -43 -41 -46 -8 -1
-14 2 -14 7 0 5 6 9 14 9 7 0 20 8 27 18 13 15 12 16 -3 3 -22 -17 -24 -5 -3
16 8 8 13 19 10 24 -4 5 -2 9 4 9 5 0 10 8 10 18 1 9 3 45 4 80 2 34 1 62 -2
62 -4 0 -7 8 -8 18 -3 44 -8 62 -17 62 -5 0 7 16 28 36 21 21 41 32 49 28 7
-4 8 -3 4 2 -5 5 -16 9 -25 9 -25 0 -24 41 1 42 10 1 17 -1 13 -4z m294 -3 c0
-5 -4 -10 -10 -10 -5 0 -10 5 -10 10 0 6 5 10 10 10 6 0 10 -4 10 -10z m70 0
c0 -5 -4 -10 -10 -10 -5 0 -10 5 -10 10 0 6 5 10 10 10 6 0 10 -4 10 -10z m35
-8 c-3 -3 -11 0 -18 7 -9 10 -8 11 6 5 10 -3 15 -9 12 -12z m-138 -22 c-1 -11
-5 -20 -9 -20 -10 0 -10 4 -2 24 8 22 13 20 11 -4z m-546 -20 c6 0 7 5 4 10
-3 6 -1 10 4 10 6 0 11 -2 11 -4 0 -2 3 -12 6 -20 5 -12 2 -15 -12 -10 -11 4
-2 -6 19 -20 20 -15 37 -32 37 -38 0 -7 -5 -6 -15 2 -10 9 -15 9 -15 1 0 -6 5
-11 11 -11 5 0 7 -5 4 -10 -4 -6 -3 -9 2 -8 12 4 54 -40 43 -47 -5 -3 -16 5
-24 17 -9 12 -16 17 -16 11 0 -7 5 -15 10 -18 6 -4 8 -10 5 -15 -6 -10 21 -7
31 3 16 15 26 6 12 -10 -16 -19 -14 -43 4 -43 7 0 6 5 -2 14 -9 12 -8 15 9 13
13 -1 20 -7 18 -16 -1 -10 6 -16 19 -17 12 -1 21 5 21 13 0 9 -4 10 -11 3 -16
-16 -30 -12 -16 5 21 25 35 11 35 -33 0 -39 -17 -63 -30 -42 -4 6 -14 10 -23
9 -12 0 -9 -4 8 -11 14 -6 29 -10 33 -9 5 1 5 -4 1 -11 -5 -7 -10 -22 -11 -33
-2 -11 -14 -30 -27 -41 -14 -12 -22 -25 -18 -29 4 -4 2 -5 -3 -4 -6 2 -24 -4
-41 -13 -24 -13 -34 -14 -44 -5 -10 9 -11 9 -5 -1 5 -10 2 -13 -11 -10 -13 2
-18 11 -17 28 2 22 2 23 -6 5 -5 -11 -6 -24 -3 -29 2 -4 -11 -5 -29 -1 -44 10
-49 13 -49 33 0 13 -2 14 -9 3 -6 -10 -14 -5 -33 20 -27 38 -63 113 -50 105 4
-2 14 5 21 17 11 18 11 20 0 10 -18 -18 -25 -16 -25 7 0 11 3 20 6 20 3 0 4
16 2 35 -3 25 0 35 9 35 11 0 11 2 -1 10 -11 7 -11 10 -2 10 8 0 10 5 6 12 -5
7 -2 9 8 6 8 -4 15 0 15 8 0 7 -4 11 -9 8 -15 -10 -8 3 21 36 28 33 29 33 55
17 14 -9 29 -17 33 -17 4 0 -5 9 -20 19 -18 11 -25 21 -18 25 6 4 16 4 23 0 7
-5 8 -3 3 6 -6 10 -4 12 8 7 10 -4 17 -1 18 6 1 7 3 4 6 -5 2 -10 9 -18 14
-18z m69 8 c0 -6 7 -8 15 -4 18 6 20 -10 3 -20 -6 -4 -17 1 -24 11 -12 16 -13
16 -11 -3 0 -11 5 -18 9 -16 4 3 8 1 8 -3 0 -5 7 -18 15 -29 15 -18 15 -18 8
0 -8 24 12 14 26 -13 8 -15 6 -18 -19 -18 -18 0 -26 5 -23 12 2 7 -6 21 -19
31 -13 11 -24 31 -26 46 -2 22 1 25 18 21 11 -3 20 -10 20 -15z m600 18 c0 -3
-4 -8 -10 -11 -5 -3 -10 -1 -10 4 0 6 5 11 10 11 6 0 10 -2 10 -4z m-282 -56
c0 -26 -6 -41 -17 -45 -13 -5 -13 -4 -4 6 9 9 10 16 2 26 -9 9 -8 17 1 28 9
10 9 15 1 15 -6 0 -11 4 -11 10 0 5 6 7 14 4 10 -4 15 -20 14 -44z m199 44
c-3 -3 -12 -4 -19 -1 -8 3 -5 6 6 6 11 1 17 -2 13 -5z m226 -17 c4 3 9 -2 13
-11 3 -9 10 -14 14 -11 5 3 7 -3 6 -12 -3 -22 -45 -27 -53 -7 -3 8 -8 12 -12
10 -4 -3 -8 5 -8 17 -2 20 -1 20 15 -3 9 -14 25 -26 35 -28 15 -3 16 0 5 17
-6 11 -15 18 -19 15 -5 -2 -13 6 -19 18 -10 21 -10 21 3 6 8 -10 17 -15 20
-11z m-56 7 c-3 -3 -12 -4 -19 -1 -8 3 -5 6 6 6 11 1 17 -2 13 -5z m-633 -36
c-3 -4 1 -5 9 -2 13 4 28 -14 26 -32 0 -4 3 -10 9 -13 10 -7 34 -72 28 -78 -8
-8 -66 -11 -66 -3 0 5 5 10 12 12 6 2 -3 10 -20 17 -30 12 -45 41 -22 41 6 0
10 -8 10 -17 1 -17 1 -17 11 0 5 9 15 17 21 17 7 0 7 -5 -1 -14 -10 -11 -8
-16 8 -21 11 -3 19 -11 17 -18 -1 -7 -1 -9 1 -4 3 4 10 4 16 0 8 -5 8 -2 0 9
-7 8 -10 18 -6 22 4 4 0 4 -10 0 -10 -3 -17 -1 -17 6 0 6 5 8 10 5 6 -3 10 -2
10 4 0 5 -9 12 -19 16 -11 3 -23 15 -26 26 -6 18 -18 24 -40 19 -5 -1 -1 8 10
19 13 16 21 18 26 9 4 -7 5 -16 3 -20z m480 23 c3 -4 0 -13 -6 -21 -8 -12 -9
-12 -5 2 4 12 0 16 -14 15 -11 -1 -19 -9 -19 -20 0 -10 4 -16 8 -13 4 2 14 0
22 -5 11 -7 9 -8 -9 -6 -26 4 -36 19 -28 40 5 14 44 20 51 8z m102 -37 c-3 -8
-11 -12 -17 -9 -13 9 -8 -27 6 -38 6 -5 4 -7 -5 -4 -18 4 -21 53 -2 50 6 -2
12 7 13 20 0 12 3 16 6 9 3 -7 2 -20 -1 -28z m-425 12 c-9 -11 -8 -15 6 -21
10 -5 27 -8 38 -8 20 -1 35 -14 35 -31 0 -4 -11 -1 -25 8 -14 9 -25 13 -25 8
0 -4 -8 -8 -19 -9 -12 -1 -18 5 -17 15 0 9 -5 16 -11 15 -16 -4 -17 9 -1 25
17 17 33 15 19 -2z m342 -1 c-3 -9 -8 -14 -10 -11 -3 3 -2 9 2 15 9 16 15 13
8 -4z m130 8 c-7 -2 -13 -9 -13 -14 0 -5 6 -8 13 -6 7 1 12 -8 12 -20 0 -13
-4 -23 -9 -22 -5 0 -13 -5 -18 -13 -8 -10 -9 -10 -5 2 2 8 10 14 16 13 6 -2
11 6 11 18 0 11 -4 18 -9 14 -12 -7 -24 12 -16 25 3 6 12 10 18 9 9 0 9 -2 0
-6z m-263 -43 c0 -5 -4 -10 -10 -10 -5 0 -10 5 -10 10 0 6 5 10 10 10 6 0 10
-4 10 -10z m240 0 c0 -5 -4 -10 -10 -10 -5 0 -10 5 -10 10 0 6 5 10 10 10 6 0
10 -4 10 -10z m140 -11 c0 -5 -6 -9 -13 -9 -7 0 -13 -9 -14 -20 -1 -11 4 -19
10 -17 7 1 11 -8 10 -20 -2 -14 2 -22 10 -20 18 3 15 -46 -3 -50 -9 -3 -11 -1
-5 4 15 13 18 44 3 41 -8 -2 -12 5 -11 19 2 14 -2 22 -9 20 -17 -3 -18 43 -2
50 8 3 11 10 7 16 -3 6 -1 7 5 3 7 -4 12 -11 12 -17z m-410 7 c0 -2 -8 -10
-17 -17 -16 -13 -17 -12 -4 4 13 16 21 21 21 13z m127 -2 c-3 -3 -12 -4 -19
-1 -8 3 -5 6 6 6 11 1 17 -2 13 -5z m240 0 c-3 -3 -12 -4 -19 -1 -8 3 -5 6 6
6 11 1 17 -2 13 -5z m-437 -30 c0 -26 -20 -30 -28 -4 -3 7 0 10 7 6 7 -5 9 -1
5 8 -3 9 -1 16 5 16 6 0 11 -12 11 -26z m157 6 c-1 -11 -5 -20 -9 -20 -10 0
-10 4 -2 24 8 22 13 20 11 -4z m237 -4 c-3 -9 -10 -16 -15 -16 -5 0 -4 9 3 20
14 22 21 20 12 -4z m-441 5 c11 -2 8 -31 -3 -31 -5 0 -10 8 -10 17 0 15 -2 14
-14 -2 -8 -11 -13 -22 -11 -26 2 -3 -6 -5 -18 -4 -12 1 -22 7 -21 13 2 29 5
33 15 26 8 -4 7 -9 -2 -16 -11 -8 -11 -9 1 -5 8 2 14 11 12 19 -2 14 10 16 51
9z m346 -18 c2 -1 -5 -1 -16 0 -11 0 -20 7 -20 14 0 10 4 10 16 1 9 -7 18 -13
20 -15z m-219 -4 c0 -6 -4 -7 -10 -4 -5 3 -10 11 -10 16 0 6 5 7 10 4 6 -3 10
-11 10 -16z m115 11 c3 -6 -1 -7 -9 -4 -18 7 -21 14 -7 14 6 0 13 -4 16 -10z
m235 0 c0 -5 -2 -10 -4 -10 -3 0 -8 5 -11 10 -3 6 -1 10 4 10 6 0 11 -4 11
-10z m70 0 c0 -5 -4 -10 -10 -10 -5 0 -10 5 -10 10 0 6 5 10 10 10 6 0 10 -4
10 -10z m-309 -27 c13 -16 12 -17 -3 -4 -16 12 -18 11 -18 -8 0 -14 4 -20 12
-15 7 4 8 3 4 -5 -10 -15 -26 -4 -26 18 0 15 8 31 15 31 2 0 9 -8 16 -17z
m169 7 c0 -5 -4 -10 -10 -10 -5 0 -10 5 -10 10 0 6 5 10 10 10 6 0 10 -4 10
-10z m57 -21 c-2 -12 -10 -25 -18 -30 -8 -5 -9 -9 -4 -9 6 0 3 -6 -5 -13 -8
-7 -16 -20 -18 -30 -3 -15 0 -16 17 -5 11 6 19 17 18 22 -1 6 8 11 21 11 12 0
22 -4 21 -10 0 -5 8 -13 18 -17 16 -7 16 -8 -2 -5 -11 2 -19 9 -17 15 1 7 -7
12 -19 12 -11 0 -18 -4 -15 -9 3 -5 -5 -16 -19 -25 -13 -9 -26 -12 -29 -8 -8
14 0 43 15 53 8 5 10 9 4 9 -5 0 -3 6 5 13 8 7 16 20 18 30 3 15 0 16 -17 5
-11 -6 -19 -17 -18 -22 1 -6 -9 -11 -23 -11 -15 0 -24 5 -22 13 1 6 -5 12 -13
12 -8 0 -15 5 -15 10 0 7 7 7 20 0 11 -6 18 -15 15 -21 -4 -5 3 -9 14 -9 12 0
20 4 19 9 -4 12 34 41 44 35 4 -3 6 -14 5 -25z m-140 -1 c-3 -8 -6 -5 -6 6 -1
11 2 17 5 13 3 -3 4 -12 1 -19z m242 -23 c0 -5 -4 -3 -9 5 -5 8 -9 22 -9 30 0
16 17 -16 18 -35z m-520 7 c-5 -14 -7 -27 -4 -30 3 -3 -5 -16 -17 -29 -21 -22
-13 -34 8 -13 7 7 11 6 11 -5 0 -8 -2 -13 -5 -10 -10 9 -42 -16 -36 -28 4 -7
-2 -4 -13 6 -16 14 -23 15 -29 6 -4 -7 -3 -10 4 -5 6 4 16 -4 23 -16 11 -21
11 -22 -4 -9 -15 12 -17 11 -17 -3 0 -9 5 -16 10 -16 6 0 10 -5 10 -11 0 -8
-6 -7 -17 2 -15 12 -16 12 -10 -4 4 -11 1 -20 -8 -23 -19 -8 -19 -24 0 -24 8
0 15 -5 15 -10 0 -7 -6 -7 -20 0 -18 10 -24 7 -21 -12 0 -3 -14 -11 -31 -17
-38 -13 -41 -14 -33 -1 3 6 -1 7 -9 4 -9 -3 -13 -11 -9 -18 4 -6 -1 -5 -10 2
-9 8 -22 10 -29 6 -7 -4 -5 2 5 14 10 11 26 19 36 17 24 -4 65 31 57 51 -9 23
3 37 19 24 19 -16 33 -5 30 24 -2 15 6 32 21 45 23 20 28 32 25 59 -1 6 3 12
8 12 5 0 12 8 15 18 4 10 13 19 20 19 11 0 12 -6 5 -25z m101 18 c0 -5 -4 -10
-10 -10 -5 0 -10 5 -10 10 0 6 5 10 10 10 6 0 10 -4 10 -10z m337 -12 c-3 -8
-6 -5 -6 6 -1 11 2 17 5 13 3 -3 4 -12 1 -19z m-184 -9 c-8 -8 -13 -7 -18 2
-5 8 -4 10 3 5 7 -4 12 -2 12 5 0 7 3 9 7 6 4 -4 2 -12 -4 -18z m81 -28 c-2
-2 -13 4 -24 14 -19 18 -20 17 -20 -3 0 -12 6 -21 13 -19 7 1 11 -7 10 -20 -2
-14 2 -22 9 -20 17 3 18 -43 2 -50 -8 -3 -11 -10 -7 -16 3 -6 1 -7 -5 -3 -16
10 -15 26 1 26 7 0 13 9 14 20 1 11 -4 19 -10 17 -7 -1 -11 8 -10 21 2 13 -1
21 -7 17 -13 -8 -24 20 -16 41 5 13 9 13 30 -3 13 -10 22 -20 20 -22z m-259
10 c-3 -6 -11 -11 -16 -11 -5 0 -4 6 3 14 14 16 24 13 13 -3z m-165 -37 c-7
-7 -17 -14 -23 -14 -5 0 -2 9 8 20 11 12 13 20 6 20 -7 0 -9 5 -5 11 5 8 10 6
16 -5 6 -11 6 -22 -2 -32z m555 36 c3 -6 -1 -7 -9 -4 -18 7 -21 14 -7 14 6 0
13 -4 16 -10z m75 0 c-8 -5 -19 -10 -25 -10 -5 0 -3 5 5 10 8 5 20 10 25 10 6
0 3 -5 -5 -10z m34 -16 c3 -8 2 -12 -4 -9 -6 3 -10 10 -10 16 0 14 7 11 14 -7z
m-295 -34 c0 -10 -3 -8 -9 5 -12 27 -12 43 0 25 5 -8 9 -22 9 -30z m277 4 c3
-16 2 -26 -1 -23 -3 4 -8 19 -11 35 -3 16 -2 26 1 23 3 -4 8 -19 11 -35z
m-209 4 c-3 -8 -6 -5 -6 6 -1 11 2 17 5 13 3 -3 4 -12 1 -19z m-271 3 c-3 -5
0 -11 7 -14 17 -6 15 -49 -1 -55 -7 -2 -9 -9 -6 -14 4 -7 2 -8 -4 -4 -16 10
-15 26 1 26 7 0 13 9 13 20 0 11 -6 20 -13 20 -14 0 -17 12 -6 23 9 10 15 9 9
-2z m451 3 c-3 -3 -12 -4 -19 -1 -8 3 -5 6 6 6 11 1 17 -2 13 -5z m-400 -10
c-3 -3 -12 -4 -19 -1 -8 3 -5 6 6 6 11 1 17 -2 13 -5z m128 -3 c3 -5 2 -12 -3
-15 -5 -3 -9 1 -9 9 0 17 3 19 12 6z m-95 -11 c0 -5 -4 -10 -10 -10 -5 0 -10
5 -10 10 0 6 5 10 10 10 6 0 10 -4 10 -10z m280 0 c0 -5 -4 -10 -10 -10 -5 0
-10 5 -10 10 0 6 5 10 10 10 6 0 10 -4 10 -10z m101 -12 c6 -12 6 -18 -1 -18
-5 0 -10 6 -10 13 0 7 -9 13 -20 14 -11 1 -19 -4 -17 -10 1 -7 -8 -11 -20 -10
-14 2 -22 -2 -20 -9 4 -20 -43 -17 -54 3 -6 13 -6 19 1 19 5 0 10 -6 10 -13 0
-7 9 -13 20 -14 11 -1 19 4 17 10 -1 7 8 11 20 10 13 -2 22 1 22 5 -3 16 2 21
22 19 11 -1 25 -9 30 -19z m-411 -8 c0 -5 -4 -10 -10 -10 -5 0 -10 5 -10 10 0
6 5 10 10 10 6 0 10 -4 10 -10z m60 0 c0 -5 -4 -10 -10 -10 -5 0 -10 5 -10 10
0 6 5 10 10 10 6 0 10 -4 10 -10z m110 0 c0 -5 -4 -10 -10 -10 -5 0 -10 5 -10
10 0 6 5 10 10 10 6 0 10 -4 10 -10z m65 0 c3 -5 1 -10 -4 -10 -6 0 -11 5 -11
10 0 6 2 10 4 10 3 0 8 -4 11 -10z m230 0 c3 -5 2 -10 -4 -10 -5 0 -13 5 -16
10 -3 6 -2 10 4 10 5 0 13 -4 16 -10z m-601 -16 c3 -8 2 -12 -4 -9 -6 3 -10
10 -10 16 0 14 7 11 14 -7z m166 -4 c0 -5 -4 -10 -10 -10 -5 0 -10 5 -10 10 0
6 5 10 10 10 6 0 10 -4 10 -10z m236 -26 c3 -16 2 -26 -1 -23 -3 4 -8 19 -11
35 -3 16 -2 26 1 23 3 -4 8 -19 11 -35z m124 26 c0 -5 -4 -10 -10 -10 -5 0
-10 5 -10 10 0 6 5 10 10 10 6 0 10 -4 10 -10z m60 -16 c0 -8 -4 -14 -10 -14
-5 0 -7 7 -3 16 5 14 3 14 -15 3 -11 -7 -20 -18 -19 -23 1 -6 -8 -11 -20 -11
-13 0 -23 4 -22 10 0 5 -8 13 -18 17 -16 7 -16 8 2 5 11 -2 19 -9 18 -15 -2
-7 6 -12 17 -12 11 0 19 4 18 9 -4 12 34 41 44 35 5 -3 8 -12 8 -20z m-385 6
c-3 -5 -12 -10 -18 -10 -7 0 -6 4 3 10 19 12 23 12 15 0z m82 -12 c-3 -8 -6
-5 -6 6 -1 11 2 17 5 13 3 -3 4 -12 1 -19z m337 7 c3 -8 1 -15 -4 -15 -6 0
-10 7 -10 15 0 8 2 15 4 15 2 0 6 -7 10 -15z m-634 -5 c0 -5 -4 -10 -10 -10
-5 0 -10 5 -10 10 0 6 5 10 10 10 6 0 10 -4 10 -10z m147 4 c-3 -3 -12 -4 -19
-1 -8 3 -5 6 6 6 11 1 17 -2 13 -5z m240 0 c-3 -3 -12 -4 -19 -1 -8 3 -5 6 6
6 11 1 17 -2 13 -5z m70 -10 c-3 -3 -12 -4 -19 -1 -8 3 -5 6 6 6 11 1 17 -2
13 -5z m-296 -26 c6 -12 6 -18 -1 -18 -5 0 -10 6 -10 13 0 7 -8 13 -18 14 -13
1 -18 -5 -18 -19 1 -15 -6 -22 -24 -24 -18 -3 -21 -2 -10 5 8 5 18 7 23 4 5
-3 8 3 7 13 -3 30 -1 33 21 31 11 -1 25 -9 30 -19z m59 12 c-8 -5 -18 -6 -22
-4 -4 3 -8 0 -8 -7 0 -7 -3 -10 -6 -6 -10 10 4 23 28 24 17 2 19 0 8 -7z m95
0 c-3 -5 -1 -10 4 -10 6 0 11 -5 11 -11 0 -8 -5 -8 -15 1 -13 11 -12 30 1 30
3 0 2 -4 -1 -10z m80 -21 c0 -19 -6 -24 -25 -24 -18 0 -25 6 -26 20 -1 29 5
35 29 31 16 -2 22 -10 22 -27z m90 23 c-5 -4 -11 -16 -13 -27 -3 -20 -2 -20
13 -1 8 11 15 15 15 9 0 -15 -27 -36 -34 -25 -4 6 -2 31 3 50 1 1 7 2 14 2 7
0 8 -3 2 -8z m-483 -29 c-11 -19 -48 -28 -57 -13 -3 5 0 12 6 16 7 4 9 3 5 -4
-4 -7 1 -10 14 -9 11 1 23 10 26 20 3 10 8 16 11 14 2 -3 0 -14 -5 -24z m571
12 c-3 -9 -8 -14 -10 -11 -3 3 -2 9 2 15 9 16 15 13 8 -4z m90 8 c-7 -2 -19
-2 -25 0 -7 3 -2 5 12 5 14 0 19 -2 13 -5z m-573 -7 c0 -3 -4 -8 -10 -11 -5
-3 -10 -1 -10 4 0 6 5 11 10 11 6 0 10 -2 10 -4z m152 -20 c7 4 8 2 4 -5 -10
-15 -26 -4 -25 17 1 15 2 15 6 -1 2 -9 9 -14 15 -11z m198 14 c-8 -5 -19 -10
-25 -10 -5 0 -3 5 5 10 8 5 20 10 25 10 6 0 3 -5 -5 -10z m-300 -18 c0 -5 -7
-17 -15 -28 -14 -18 -14 -17 -4 9 12 27 19 34 19 19z m60 -18 c0 -8 -4 -14
-10 -14 -5 0 -7 8 -3 18 5 14 3 15 -8 5 -7 -7 -17 -13 -23 -13 -5 0 -1 6 9 14
22 16 35 12 35 -10z m260 1 c14 -19 14 -19 -2 -6 -10 7 -18 18 -18 24 0 6 1 8
3 6 1 -2 9 -13 17 -24z m74 17 c-12 -4 -20 -14 -19 -22 2 -10 -5 -16 -16 -16
-11 0 -19 4 -19 8 0 4 7 8 15 8 8 0 14 3 14 8 -3 17 2 22 24 21 21 -1 22 -1 1
-7z m143 -23 c2 -18 1 -20 -6 -9 -5 8 -7 18 -5 22 3 4 0 8 -5 8 -6 0 -11 -5
-11 -12 0 -6 -3 -9 -6 -5 -9 9 6 29 19 24 5 -1 12 -14 14 -28z m-60 -1 c-3 -8
-6 -5 -6 6 -1 11 2 17 5 13 3 -3 4 -12 1 -19z m-176 -5 c8 -9 9 -14 2 -10 -6
4 -13 4 -16 0 -2 -5 -2 -2 0 6 2 8 -2 11 -12 7 -8 -3 -15 -1 -15 4 0 16 26 11
41 -7z m-341 -5 c0 -11 -12 -10 -30 2 -12 7 -10 9 8 7 12 0 22 -5 22 -9z m285
-6 c-3 -3 -11 0 -18 7 -9 10 -8 11 6 5 10 -3 15 -9 12 -12z m-518 -114 c11
-13 19 -32 17 -42 -3 -22 -34 -57 -34 -39 0 7 5 15 11 18 6 4 8 13 5 21 -3 8
0 14 7 14 8 0 6 4 -3 10 -25 16 -27 12 -27 -39 1 -27 5 -47 9 -45 4 3 8 0 8
-6 0 -6 -8 -10 -17 -8 -12 2 -17 15 -18 49 -1 25 -5 52 -10 59 -6 9 -4 11 5 5
10 -6 12 -4 7 8 -9 25 16 21 40 -5z m59 -39 c3 -44 4 -45 15 -29 9 13 10 13 6
0 -2 -8 -10 -15 -18 -15 -8 0 -13 7 -11 15 1 10 -2 9 -13 -4 -8 -11 -18 -17
-21 -13 -4 4 -2 13 5 21 6 8 11 18 10 22 -3 18 1 26 13 22 7 -3 13 -11 14 -19z
m-229 -4 c0 -8 -4 -12 -9 -9 -5 3 -6 10 -3 15 9 13 12 11 12 -6z m118 -24 c-1
-20 3 -41 8 -48 11 -16 0 -34 -17 -27 -10 4 -13 -6 -11 -41 2 -34 0 -45 -10
-41 -7 2 -18 -1 -24 -7 -8 -8 -11 -8 -11 1 0 7 6 15 14 18 8 3 13 19 13 39 -1
18 -4 32 -8 29 -10 -6 -19 24 -13 41 4 8 10 15 14 15 8 0 25 39 23 51 -1 3 4
6 10 6 8 0 12 -14 12 -36z m156 -30 c12 -2 6 -36 -9 -54 -12 -14 -13 -20 -3
-30 10 -9 11 -8 6 8 -5 13 4 8 24 -15 17 -19 33 -43 36 -52 3 -9 14 -20 23
-23 20 -7 57 -55 42 -55 -5 0 -10 5 -10 11 0 6 -8 1 -18 -11 -23 -28 -67 -32
-95 -9 -12 10 -17 18 -11 19 6 0 14 -3 18 -7 4 -4 21 -8 37 -9 34 -2 59 30 39
50 -6 6 -11 7 -10 1 5 -22 -1 -45 -10 -45 -5 0 -7 14 -5 31 3 26 1 29 -11 18
-8 -6 -17 -9 -21 -5 -4 3 2 13 13 21 13 11 14 14 4 13 -8 -2 -15 4 -15 12 0
21 -16 31 -40 24 -11 -4 -17 -3 -13 1 4 4 3 16 -2 26 -8 13 -5 21 9 31 16 11
17 16 6 31 -10 14 -14 15 -19 5 -5 -10 -7 -10 -12 0 -4 8 -12 6 -26 -10 -15
-18 -18 -19 -14 -5 3 10 2 16 -2 13 -10 -6 -9 -137 1 -153 11 -17 -3 -16 -25
1 -19 14 -25 32 -8 21 6 -3 10 -1 10 4 0 6 -6 11 -12 12 -10 0 -10 2 0 6 6 2
12 9 12 15 0 6 -6 6 -15 -2 -8 -6 -20 -8 -26 -4 -7 4 -9 3 -5 -4 3 -6 2 -13
-3 -17 -6 -3 -7 -13 -4 -22 4 -11 3 -14 -6 -9 -6 4 -18 3 -26 -4 -9 -7 -15 -8
-20 0 -3 5 -1 10 4 10 6 0 10 5 9 12 -2 7 6 12 17 13 17 0 20 7 20 42 0 23 2
41 5 40 12 -4 61 37 56 48 -3 8 11 11 47 9 29 -1 55 -2 58 -3z m-21 -32 c0 -4
-6 -12 -14 -18 -11 -9 -15 -9 -18 0 -2 7 -8 6 -17 -5 -12 -14 -12 -16 2 -10
10 3 20 -2 27 -15 6 -12 8 -21 5 -21 -3 0 2 -11 11 -25 17 -26 16 -29 -10 -19
-9 3 -14 10 -11 14 9 14 -16 23 -28 11 -9 -9 -7 -10 8 -5 l20 7 -20 -24 c-18
-22 -18 -22 -1 -9 17 13 19 13 14 0 -2 -8 -11 -15 -19 -15 -19 0 -20 99 -1
123 14 17 52 25 52 11z m-186 -45 c2 -10 -3 -25 -11 -32 -7 -8 -11 -22 -9 -31
7 -21 -4 -35 -29 -39 -19 -2 -19 -1 3 17 15 13 18 21 10 24 -10 4 -10 8 1 15
9 7 10 12 2 16 -6 4 -11 2 -11 -4 0 -6 -4 -9 -9 -5 -5 3 -13 0 -17 -6 -4 -7
-3 -9 3 -6 6 4 14 0 17 -9 4 -11 2 -15 -8 -11 -10 4 -13 1 -9 -9 3 -7 0 -14
-6 -14 -6 0 -11 11 -11 23 0 28 33 62 53 54 8 -3 13 3 14 17 0 11 -1 15 -4 9
-3 -7 -9 -13 -14 -13 -6 0 -5 9 2 21 12 23 28 15 33 -17z m217 -46 c6 -69 6
-77 -4 -71 -6 4 -7 1 -3 -6 6 -9 13 -8 27 5 10 9 19 12 19 7 0 -6 -7 -16 -15
-23 -12 -10 -18 -10 -30 0 -9 7 -18 10 -22 7 -3 -4 -15 -1 -26 5 -17 9 -23 6
-38 -13 -10 -13 -21 -20 -25 -17 -4 4 10 23 31 43 22 19 41 31 44 26 4 -5 15
-3 25 5 11 8 14 14 8 14 -7 0 -12 7 -12 15 0 18 20 20 21 3z m-147 -19 c-4 -7
3 -19 15 -28 14 -11 20 -23 15 -34 -3 -9 -10 -14 -15 -11 -5 3 -9 1 -9 -4 0
-22 35 -23 52 -2 14 17 21 19 38 10 11 -6 20 -15 20 -20 0 -11 37 -24 75 -24
32 -1 42 -25 15 -34 -12 -4 -13 -2 -3 9 9 11 7 14 -12 15 -13 1 -26 -4 -29
-12 -7 -17 -24 -18 -22 -1 0 6 -3 12 -9 12 -5 0 -9 -6 -9 -12 2 -18 -3 -16
-34 12 -15 14 -22 25 -16 25 5 0 15 -5 21 -11 8 -8 13 -8 18 0 3 6 3 11 -2 10
-19 -3 -27 2 -15 10 11 6 10 10 -4 15 -10 4 -15 4 -12 0 4 -3 -12 -19 -35 -35
-41 -27 -70 -31 -33 -3 11 8 15 14 9 14 -7 0 -15 -4 -18 -10 -8 -13 -35 -13
-35 0 0 6 6 9 13 8 8 -2 11 8 10 31 -2 26 1 31 9 23 7 -7 16 -12 22 -12 5 0 1
7 -10 15 -15 11 -21 11 -29 2 -5 -7 -17 -12 -25 -12 -8 0 -14 -7 -13 -15 2
-10 -5 -16 -18 -17 -17 -2 -18 1 -9 13 9 10 9 14 1 14 -6 0 -11 -4 -11 -10 0
-5 -5 -10 -11 -10 -5 0 -7 5 -4 10 3 6 1 10 -4 10 -6 0 -11 -5 -11 -11 0 -6
-7 -3 -16 6 -17 17 -35 17 -36 0 -1 -6 -8 -16 -17 -23 -14 -11 -13 -11 7 -2
29 14 30 -5 1 -20 -20 -11 -20 -12 -3 -31 9 -10 14 -22 11 -26 -11 -10 -37 30
-34 52 3 24 26 67 40 77 6 4 18 3 26 -1 15 -8 59 -7 106 2 11 2 21 10 21 18 3
27 4 29 15 29 5 0 7 -5 3 -11z m-144 -74 c10 -13 10 -19 -5 -35 -17 -19 -17
-21 0 -40 10 -12 25 -18 32 -16 15 6 18 -10 3 -19 -5 -3 -26 9 -45 28 l-35 34
25 13 c24 13 24 15 8 32 -9 10 -11 18 -6 18 6 0 16 -7 23 -15z m127 -7 c1 -10
-2 -16 -7 -13 -5 3 -12 1 -15 -5 -4 -6 5 -22 20 -36 15 -14 24 -28 20 -32 -3
-4 -14 4 -24 17 -14 18 -22 21 -35 14 -10 -5 -17 -13 -16 -17 0 -4 -11 -21
-25 -39 l-26 -32 -19 24 c-11 13 -20 18 -20 12 0 -7 -5 -9 -12 -5 -7 4 -8 3
-4 -4 4 -7 3 -12 -3 -12 -6 0 -15 8 -20 19 -9 16 -7 18 18 17 15 -1 36 -8 45
-15 15 -12 19 -12 33 1 17 18 10 40 -11 32 -7 -3 -18 2 -25 10 -11 13 -9 20 7
41 l20 25 23 -20 c13 -10 19 -19 14 -20 -6 0 -16 5 -21 10 -7 7 -16 6 -28 -3
-16 -12 -13 -13 23 -12 22 1 44 4 47 8 4 4 2 7 -4 7 -7 0 -12 5 -12 10 0 6 3
9 8 9 26 -4 34 1 22 15 -9 12 -8 15 7 13 11 0 20 -9 20 -19z m101 -53 c25 -26
58 -29 83 -8 14 12 17 12 22 -1 4 -10 16 -14 34 -12 15 2 28 5 28 6 0 7 56 6
61 -1 3 -6 -2 -9 -12 -7 -13 2 -19 -4 -20 -20 -1 -22 10 -35 31 -38 6 0 16 -2
24 -2 11 -2 11 -5 1 -17 -18 -21 -35 -19 -19 3 11 14 11 15 -1 5 -18 -17 -30
-16 -30 1 0 8 -7 16 -15 20 -8 3 -12 11 -10 18 4 11 -15 13 -90 13 -91 -1
-101 2 -95 30 1 6 -4 4 -11 -2 -19 -19 -27 -16 -24 10 4 36 11 36 43 2z m-295
-12 c10 -9 -14 -34 -26 -26 -6 3 -7 1 -3 -6 4 -6 11 -9 16 -6 5 3 11 -4 15
-15 7 -21 45 -28 45 -8 0 8 6 6 17 -5 9 -9 13 -20 9 -24 -4 -4 -11 -1 -15 6
-6 9 -11 10 -15 2 -4 -6 -12 -8 -18 -5 -7 4 -8 2 -4 -5 10 -15 -50 -75 -65
-65 -8 4 -9 3 -5 -4 4 -7 2 -12 -4 -12 -6 0 -10 8 -8 18 2 9 10 16 17 14 19
-4 50 27 48 48 -1 15 -4 16 -14 8 -8 -6 -16 -8 -20 -4 -4 3 2 13 13 21 13 11
14 14 4 13 -21 -4 -31 -20 -24 -40 4 -13 1 -16 -9 -12 -20 7 -52 -25 -38 -39
17 -17 13 -31 -4 -17 -17 14 -11 50 12 63 7 5 11 12 8 17 -3 4 2 10 10 14 8 3
15 15 15 26 0 11 7 23 15 26 8 4 12 10 9 15 -6 10 9 12 19 2z m183 -10 c16
-22 18 -43 3 -43 -5 0 -8 4 -4 9 10 18 -17 23 -33 7 -23 -23 -24 -71 -1 -92
18 -16 45 -11 34 7 -4 5 -1 9 4 9 6 0 11 -6 11 -12 -1 -16 -24 -48 -35 -48 -5
0 -6 2 -3 5 3 3 -7 19 -23 35 -19 19 -27 35 -23 47 5 14 4 15 -4 4 -6 -8 -8
-20 -6 -26 4 -9 -6 -11 -30 -9 -20 1 -39 -3 -43 -9 -3 -7 -3 -9 1 -5 4 3 20 3
36 -2 18 -5 32 -4 39 3 7 7 11 7 11 1 0 -20 -22 -32 -49 -25 -36 10 -54 8 -58
-5 -2 -7 18 -10 59 -9 35 1 72 -3 82 -8 15 -7 23 -4 37 14 10 13 21 21 24 17
4 -4 -5 -19 -19 -33 -27 -27 -34 -41 -14 -29 6 4 8 3 4 -4 -7 -12 -46 -12 -46
0 0 4 5 8 12 8 6 0 8 3 4 7 -13 13 -150 11 -167 -3 -8 -8 -26 -12 -39 -9 -13
3 -31 -2 -40 -10 -23 -20 -50 -9 -48 20 2 17 7 21 23 18 16 -4 17 -3 5 6 -8 5
-11 13 -7 17 4 4 15 0 24 -9 19 -19 15 -27 -16 -30 -12 -1 -17 -5 -12 -10 10
-10 51 9 51 23 0 5 6 7 14 4 8 -3 17 -1 21 5 3 6 12 11 18 11 7 0 4 -7 -6 -14
-10 -8 -14 -17 -9 -20 9 -5 24 16 26 37 1 4 6 11 12 15 6 4 16 17 23 30 9 16
18 21 31 17 13 -4 25 1 37 16 10 13 30 35 44 50 15 16 24 31 21 34 -3 3 -2 5
3 5 4 0 14 -8 21 -17z m61 -4 c2 -17 -1 -18 -13 -9 -17 15 -18 30 -1 30 7 0
13 -9 14 -21z m41 -25 c10 -19 8 -21 -18 -21 -29 0 -30 6 -7 35 11 14 10 14
25 -14z m-52 -10 c-3 -7 -1 -16 4 -19 6 -4 10 -11 10 -17 0 -6 -6 -6 -15 2 -9
7 -13 20 -10 29 3 11 0 10 -10 -3 -19 -26 -19 -32 5 -56 10 -10 15 -22 10 -25
-5 -3 -14 4 -20 15 -11 21 -37 22 -32 1 3 -15 -13 -14 -25 2 -12 14 -11 57 0
75 10 15 28 16 25 1 -5 -21 21 -20 32 1 12 22 35 17 26 -6z m228 5 c-6 -10 77
-90 87 -83 5 3 9 1 9 -5 0 -5 8 -12 18 -15 9 -3 24 -18 33 -33 l15 -28 -92 0
c-51 -1 -91 2 -88 6 2 4 -1 11 -7 15 -7 4 -20 -3 -30 -17 -18 -23 -19 -23 -36
-5 -17 17 -17 18 3 12 16 -5 26 0 38 19 15 23 38 35 35 18 -5 -28 1 -35 18
-22 15 12 16 12 9 -6 -5 -15 -4 -17 5 -8 14 14 3 34 -14 27 -7 -2 -13 4 -14
16 -1 16 2 18 15 10 9 -5 28 -21 41 -35 18 -20 26 -23 33 -13 6 10 10 10 16 1
5 -8 11 -8 23 0 15 11 15 14 1 27 -14 13 -15 12 -9 -3 9 -23 -6 -21 -34 4
l-24 20 25 -7 c29 -7 26 -2 -9 16 -13 6 -21 8 -17 2 3 -5 -1 -13 -10 -16 -12
-4 -15 -2 -10 9 8 23 -4 45 -21 38 -11 -4 -14 -2 -9 5 4 7 2 20 -4 29 -9 16
-10 15 -5 -4 4 -14 2 -23 -4 -23 -10 0 -16 22 -12 43 1 5 -3 6 -9 2 -6 -4 -8
-16 -5 -28 6 -21 5 -21 -15 2 -17 19 -23 22 -30 12 -4 -8 -7 -25 -5 -38 1 -14
-2 -22 -9 -20 -16 5 -14 39 4 61 14 18 14 18 -7 5 -16 -10 -21 -21 -19 -42 2
-17 -1 -26 -8 -24 -6 2 -11 18 -11 34 0 17 -3 34 -6 37 -3 3 -5 -4 -4 -17 1
-12 -3 -25 -9 -29 -21 -14 -27 -8 -14 15 7 12 11 27 10 32 -1 7 29 11 82 10
46 0 82 -3 80 -6z m-184 -34 c0 -8 -5 -15 -12 -15 -6 0 -3 -6 8 -14 11 -9 21
-10 25 -5 3 6 11 4 18 -5 7 -8 24 -14 39 -13 23 2 27 7 26 30 -1 15 2 27 6 27
17 0 29 -28 24 -56 -5 -27 -4 -28 9 -9 8 10 13 25 10 32 -4 9 2 9 26 0 33 -12
41 -27 16 -27 -8 0 -15 4 -15 9 0 5 -15 -5 -33 -22 -18 -18 -31 -35 -30 -39 4
-8 -55 -3 -78 6 -9 4 -23 1 -30 -6 -15 -14 -63 -17 -75 -5 -4 3 1 18 10 32 13
19 23 24 44 20 15 -2 34 0 42 5 11 7 6 8 -17 5 -18 -2 -33 1 -33 6 0 5 -3 8
-7 8 -20 -3 -34 2 -28 11 3 6 1 10 -4 10 -6 0 -11 6 -11 13 1 6 9 2 20 -11
l19 -23 7 25 c7 28 24 36 24 11z m-290 -40 c-7 -9 -19 -14 -26 -11 -7 3 -16 1
-19 -4 -4 -6 -11 -10 -17 -10 -6 0 -6 6 2 15 7 9 19 14 26 11 7 -3 18 2 25 10
6 8 14 12 17 9 3 -2 -1 -12 -8 -20z m154 -33 c2 -4 -4 -9 -15 -9 -11 -1 -17 2
-14 8 7 11 22 12 29 1z m386 -17 c7 -8 8 -15 2 -15 -5 0 -15 7 -22 15 -7 8 -8
15 -2 15 5 0 15 -7 22 -15z m-490 -38 c0 -5 7 -4 15 3 12 10 18 10 30 0 8 -7
15 -8 15 -3 0 5 10 9 23 10 l22 2 -24 -20 c-21 -17 -26 -18 -33 -5 -11 19 -41
9 -34 -11 4 -9 -4 -7 -24 7 -35 25 -37 29 -10 27 11 -1 20 -5 20 -10z m315 -1
c17 -12 17 -16 6 -30 -11 -13 -16 -14 -22 -4 -13 21 -10 28 9 22 14 -5 14 -4
2 4 -10 8 -18 8 -28 0 -9 -8 -10 -13 -1 -18 7 -5 8 -10 1 -14 -15 -9 -24 24
-11 40 14 17 20 17 44 0z"/>
<path d="M1516 1598 c3 -5 10 -6 15 -3 13 9 11 12 -6 12 -8 0 -12 -4 -9 -9z"/>
<path d="M961 1593 c7 -12 15 -20 18 -17 3 2 -3 12 -13 22 -17 16 -18 16 -5
-5z"/>
<path d="M1410 1516 c7 -7 14 -6 21 1 9 9 7 12 -9 10 -14 -1 -18 -5 -12 -11z"/>
<path d="M1524 1512 c4 -7 2 -21 -5 -30 -12 -15 -11 -15 6 0 16 15 17 20 6 30
-11 11 -13 10 -7 0z"/>
<path d="M1260 1520 c0 -5 7 -10 15 -10 8 0 15 -5 15 -11 0 -6 -8 -8 -19 -4
-11 3 -22 1 -26 -4 -3 -6 0 -8 8 -5 8 3 18 0 22 -6 6 -9 10 -9 16 1 13 21 11
27 -11 39 -14 7 -20 7 -20 0z"/>
<path d="M1380 1320 c0 -5 5 -10 11 -10 5 0 7 5 4 10 -3 6 -8 10 -11 10 -2 0
-4 -4 -4 -10z"/>
<path d="M1026 1342 c-3 -5 1 -9 9 -9 8 0 12 4 9 9 -3 4 -7 8 -9 8 -2 0 -6 -4
-9 -8z"/>
<path d="M957 1309 c7 -7 15 -10 18 -7 3 3 -2 9 -12 12 -14 6 -15 5 -6 -5z"/>
<path d="M1074 1285 c3 -23 12 -26 13 -5 1 11 -2 20 -7 20 -4 0 -7 -7 -6 -15z"/>
<path d="M966 1278 c3 -5 10 -6 15 -3 13 9 11 12 -6 12 -8 0 -12 -4 -9 -9z"/>
<path d="M1016 1248 c5 -7 2 -9 -8 -5 -17 6 -19 -16 -3 -30 4 -5 5 -2 0 6 -6
11 -4 13 9 8 9 -4 15 -3 11 2 -3 5 0 11 7 13 7 3 5 7 -6 11 -11 5 -15 3 -10
-5z"/>
<path d="M1059 1258 c-8 -26 -5 -36 9 -31 9 4 13 2 9 -4 -3 -5 0 -10 8 -10 10
0 12 4 5 12 -5 7 -7 15 -3 19 4 4 -1 4 -11 0 -14 -5 -17 -4 -12 4 4 7 5 12 2
12 -3 0 -6 -1 -7 -2z"/>
<path d="M935 1239 c-6 -8 -4 -10 5 -4 10 6 12 4 6 -11 -6 -15 -5 -17 5 -6 9
9 10 15 2 23 -8 8 -13 7 -18 -2z"/>
<path d="M907 1199 c7 -7 15 -10 18 -7 3 3 -2 9 -12 12 -14 6 -15 5 -6 -5z"/>
<path d="M959 1188 c-10 -33 6 -46 28 -24 4 4 4 7 -2 6 -21 -5 -29 1 -15 10
10 6 11 10 3 10 -7 0 -13 -1 -14 -2z"/>
<path d="M1030 1180 c0 -5 5 -10 10 -10 6 0 10 5 10 10 0 6 -4 10 -10 10 -5 0
-10 -4 -10 -10z"/>
<path d="M1106 1183 c6 -4 10 -16 8 -26 -1 -9 1 -15 6 -12 13 8 5 38 -11 43
-9 2 -10 1 -3 -5z"/>
<path d="M931 1154 c0 -11 3 -14 6 -6 3 7 2 16 -1 19 -3 4 -6 -2 -5 -13z"/>
<path d="M1071 1152 c-7 -14 -6 -19 4 -19 7 0 11 7 7 15 -4 11 -1 13 8 7 9 -5
11 -4 6 3 -10 16 -14 15 -25 -6z"/>
<path d="M995 1123 c0 -15 6 -28 13 -29 7 -1 8 0 3 2 -5 3 -7 16 -5 30 2 13 0
24 -4 24 -5 0 -8 -12 -7 -27z"/>
<path d="M1134 1119 c0 -12 4 -15 12 -9 6 6 14 7 17 3 4 -3 7 -2 7 4 0 6 -8
13 -18 15 -12 4 -18 -1 -18 -13z"/>
<path d="M1190 1131 c33 -25 47 -30 47 -17 0 7 -5 13 -11 13 -6 0 -20 4 -31 8
-16 6 -17 5 -5 -4z"/>
<path d="M1068 1103 c7 -3 16 -2 19 1 4 3 -2 6 -13 5 -11 0 -14 -3 -6 -6z"/>
<path d="M920 1080 c-8 -5 -10 -10 -5 -10 6 0 17 5 25 10 8 5 11 10 5 10 -5 0
-17 -5 -25 -10z"/>
<path d="M948 1051 c3 -9 1 -12 -5 -8 -13 8 -11 -19 2 -30 4 -4 5 -3 1 4 -9
16 12 27 28 14 9 -8 13 -7 13 4 0 8 -5 11 -10 8 -6 -4 -8 0 -5 8 4 10 -1 15
-12 15 -11 0 -16 -5 -12 -15z"/>
<path d="M1195 1060 c-11 -5 -14 -9 -7 -9 7 -1 11 -5 8 -9 -3 -5 0 -9 7 -9 7
0 13 9 13 19 0 10 0 18 -1 17 0 0 -9 -4 -20 -9z"/>
<path d="M1091 1051 c-8 -5 -20 -7 -28 -4 -7 3 -13 1 -13 -5 0 -6 8 -9 18 -7
9 1 22 -1 27 -6 7 -5 11 0 11 12 0 10 0 19 -1 19 0 0 -6 -4 -14 -9z"/>
<path d="M1157 1017 c4 -7 -1 -8 -13 -3 -15 6 -17 5 -6 -5 10 -11 15 -10 28 2
13 14 13 16 0 16 -8 0 -12 -5 -9 -10z"/>
<path d="M1035 1011 c-3 -5 -2 -12 3 -15 5 -3 9 1 9 9 0 17 -3 19 -12 6z"/>
<path d="M993 964 c8 -9 47 -13 51 -6 2 4 -9 8 -25 8 -17 1 -28 0 -26 -2z"/>
<path d="M1130 959 c0 -5 5 -7 10 -4 6 3 10 8 10 11 0 2 -4 4 -10 4 -5 0 -10
-5 -10 -11z"/>
<path d="M1195 1290 c3 -5 8 -10 11 -10 2 0 4 5 4 10 0 6 -5 10 -11 10 -5 0
-7 -4 -4 -10z"/>
<path d="M1415 1160 c-3 -5 -1 -10 6 -10 7 0 5 -9 -7 -22 l-19 -23 22 18 c12
11 19 25 16 33 -6 17 -10 17 -18 4z"/>
<path d="M1319 1011 c12 -8 12 -12 2 -25 -8 -9 -9 -16 -3 -16 12 0 24 29 16
41 -3 5 -11 9 -17 9 -8 0 -7 -4 2 -9z"/>
<path d="M1290 961 c0 -6 4 -13 10 -16 6 -3 7 1 4 9 -7 18 -14 21 -14 7z"/>
<path d="M1783 1001 c-1 -9 6 -17 16 -18 9 -1 17 6 18 16 1 9 -6 17 -16 18 -9
1 -17 -6 -18 -16z"/>
<path d="M1207 727 c-15 -23 -14 -23 13 -23 16 0 27 3 24 7 -2 5 -12 5 -22 2
-15 -6 -15 -5 -3 10 8 10 12 20 9 23 -3 2 -12 -6 -21 -19z"/>
<path d="M1266 674 c-11 -8 -16 -14 -10 -14 13 0 39 18 34 24 -3 2 -14 -2 -24
-10z"/>
<path d="M1270 651 c-8 -6 -19 -7 -25 -4 -6 4 -6 2 1 -6 11 -12 44 -5 44 10 0
11 -1 11 -20 0z"/>
<path d="M1326 642 c-2 -4 4 -9 15 -9 11 -1 17 2 14 8 -7 11 -22 12 -29 1z"/>
<path d="M1364 548 c10 -6 22 -6 26 -2 5 5 -3 10 -18 11 -22 1 -24 0 -8 -9z"/>
<path d="M1165 440 c3 -5 8 -10 11 -10 2 0 4 5 4 10 0 6 -5 10 -11 10 -5 0 -7
-4 -4 -10z"/>
<path d="M1206 382 c-3 -6 0 -13 6 -15 10 -4 10 -8 -1 -15 -8 -6 -9 -12 -3
-16 5 -3 13 1 16 10 7 19 -8 51 -18 36z"/>
<path d="M1435 310 c-3 -5 -1 -10 4 -10 6 0 11 5 11 10 0 6 -2 10 -4 10 -3 0
-8 -4 -11 -10z"/>
<path d="M1411 293 c16 -26 25 -29 35 -10 4 6 3 9 -1 4 -5 -4 -17 1 -28 10
-19 18 -19 17 -6 -4z"/>
<path d="M1300 286 c14 -18 13 -19 -2 -13 -10 3 -20 3 -22 -2 -3 -4 8 -7 24
-7 16 0 27 3 24 8 -3 4 9 6 25 4 17 -2 28 1 25 5 -3 5 0 9 5 9 6 0 11 -4 11
-10 0 -5 5 -10 11 -10 8 0 7 5 -1 15 -8 9 -20 13 -29 9 -27 -11 -55 -11 -71 0
-13 10 -13 9 0 -8z"/>
<path d="M894 1655 c14 -11 14 -14 -4 -30 -11 -10 -20 -22 -20 -27 0 -5 11 3
24 17 26 28 26 52 -1 52 -14 0 -14 -1 1 -12z"/>
<path d="M1024 1659 c-3 -5 3 -6 13 -3 17 5 17 5 -1 -10 -17 -14 -17 -15 10
-12 16 1 35 -2 42 -7 19 -15 37 6 24 28 -6 12 -11 14 -16 6 -4 -6 -12 -11 -17
-11 -6 0 -8 3 -6 8 3 4 -6 8 -19 8 -13 1 -27 -2 -30 -7z m86 -19 c0 -5 -4 -10
-10 -10 -5 0 -10 5 -10 10 0 6 5 10 10 10 6 0 10 -4 10 -10z"/>
<path d="M1570 1655 c-10 -13 -11 -18 -1 -28 10 -9 15 -8 27 7 8 11 14 25 13
30 0 6 -3 5 -6 -1 -2 -7 -9 -13 -14 -13 -6 0 -7 5 -4 10 10 16 -1 12 -15 -5z
m15 -15 c3 -5 1 -10 -4 -10 -6 0 -11 5 -11 10 0 6 2 10 4 10 3 0 8 -4 11 -10z"/>
<path d="M90 1601 c0 -13 8 -17 30 -15 17 1 33 -2 36 -7 3 -5 5 -147 5 -315
-1 -281 -2 -308 -18 -320 -10 -7 -28 -14 -40 -14 -15 0 -21 -5 -17 -14 4 -10
29 -14 100 -15 78 -1 94 1 94 14 0 11 -12 15 -50 15 -47 0 -49 1 -41 23 4 12
8 158 7 324 -1 195 3 303 9 304 6 1 23 2 39 3 29 1 50 25 24 27 -7 0 -50 2
-95 4 -72 2 -83 0 -83 -14z"/>
<path d="M838 1576 c-22 -16 -22 -22 -2 -30 9 -3 12 -2 9 5 -4 5 -1 16 5 24
15 18 11 19 -12 1z"/>
<path d="M882 1538 c-7 -7 -12 -16 -12 -22 0 -5 3 -6 7 -3 3 4 11 2 18 -3 8
-7 12 -5 12 5 0 8 -5 11 -10 8 -6 -4 -8 0 -4 10 8 20 5 21 -11 5z"/>
<path d="M781 1484 c0 -11 3 -14 6 -6 3 7 2 16 -1 19 -3 4 -6 -2 -5 -13z"/>
<path d="M835 1491 c-3 -5 -2 -12 3 -15 5 -3 9 1 9 9 0 17 -3 19 -12 6z"/>
<path d="M913 1470 c1 -21 10 -18 13 5 1 8 -2 15 -6 15 -5 0 -8 -9 -7 -20z"/>
<path d="M964 1479 c-3 -6 -1 -16 5 -22 9 -9 10 -7 5 7 -6 15 -4 17 6 11 9 -5
11 -4 6 3 -9 15 -13 15 -22 1z"/>
<path d="M860 1451 c0 -6 -9 -8 -20 -6 -11 2 -18 0 -15 -5 7 -12 38 -6 43 8 2
7 1 12 -2 12 -3 0 -6 -4 -6 -9z"/>
<path d="M785 1440 c-3 -6 1 -7 9 -4 18 7 21 14 7 14 -6 0 -13 -4 -16 -10z"/>
<path d="M755 1429 c-4 -6 -5 -12 -2 -15 2 -3 7 2 10 11 7 17 1 20 -8 4z"/>
<path d="M873 1423 c4 -3 2 -11 -3 -18 -7 -8 -6 -12 3 -12 7 0 14 9 14 19 1
10 -3 18 -9 18 -6 0 -8 -3 -5 -7z"/>
<path d="M946 1417 c3 -10 9 -15 12 -12 3 3 0 11 -7 18 -10 9 -11 8 -5 -6z"/>
<path d="M820 1406 c0 -2 8 -10 18 -17 15 -13 16 -12 3 4 -13 16 -21 21 -21
13z"/>
<path d="M2294 1403 c-35 -7 -100 -69 -123 -119 -25 -52 -34 -153 -19 -217 37
-165 254 -230 368 -112 27 28 31 37 21 48 -10 10 -17 7 -35 -14 -37 -42 -69
-59 -123 -63 -101 -7 -177 55 -198 163 -19 94 -30 89 183 87 l187 -1 3 41 c3
47 -26 119 -61 152 -37 34 -128 50 -203 35z m160 -47 c34 -23 77 -99 73 -131
-2 -19 -10 -20 -175 -21 -170 -1 -172 0 -166 20 24 78 54 118 105 141 47 20
124 16 163 -9z"/>
<path d="M747 1319 c7 -7 15 -10 18 -7 3 3 -2 9 -12 12 -14 6 -15 5 -6 -5z"/>
<path d="M839 1308 c-6 -21 -5 -37 2 -32 5 3 7 9 4 14 -3 4 1 11 7 13 10 4 10
6 1 6 -7 1 -13 0 -14 -1z"/>
<path d="M726 1278 c3 -5 10 -6 15 -3 13 9 11 12 -6 12 -8 0 -12 -4 -9 -9z"/>
<path d="M800 1229 c13 -23 22 -25 13 -2 -5 12 -3 14 8 8 8 -5 11 -4 6 0 -4 5
-14 10 -22 11 -12 2 -12 -2 -5 -17z"/>
<path d="M715 1229 c-4 -6 -5 -12 -2 -15 2 -3 7 2 10 11 7 17 1 20 -8 4z"/>
<path d="M734 1199 c0 -12 4 -15 12 -9 6 6 14 7 17 3 4 -3 7 -2 7 4 0 6 -8 13
-18 15 -12 4 -18 -1 -18 -13z"/>
<path d="M713 1171 c0 -11 5 -18 9 -15 4 3 5 11 1 19 -7 21 -12 19 -10 -4z"/>
<path d="M794 1159 c-4 -7 -3 -9 4 -5 5 3 13 0 15 -6 4 -9 6 -10 6 -1 1 17
-16 25 -25 12z"/>
<path d="M593 1135 c0 -8 4 -12 9 -9 4 3 8 9 8 15 0 5 -4 9 -8 9 -5 0 -9 -7
-9 -15z"/>
<path d="M768 1133 c-10 -2 -18 -9 -18 -15 0 -6 3 -8 7 -5 3 4 11 3 17 -3 8
-6 12 -3 12 11 0 10 0 18 -1 18 0 -1 -8 -3 -17 -6z"/>
<path d="M665 1080 c-3 -6 1 -7 9 -4 18 7 21 14 7 14 -6 0 -13 -4 -16 -10z"/>
<path d="M719 1078 c-6 -22 -5 -39 3 -45 6 -3 8 -1 4 5 -3 5 0 13 6 15 10 4
10 6 0 6 -7 1 -10 6 -7 11 3 6 4 10 1 10 -3 0 -6 -1 -7 -2z"/>
<path d="M564 1059 c-3 -6 -1 -16 5 -22 9 -9 10 -7 5 7 -6 15 -4 17 6 11 9 -5
11 -4 6 3 -9 15 -13 15 -22 1z"/>
<path d="M675 1041 c-3 -5 -2 -12 3 -15 5 -3 9 1 9 9 0 17 -3 19 -12 6z"/>
<path d="M790 1040 c0 -5 5 -10 10 -10 6 0 10 5 10 10 0 6 -4 10 -10 10 -5 0
-10 -4 -10 -10z"/>
<path d="M747 1013 c3 -7 6 -13 8 -13 2 0 5 6 8 13 3 8 -1 14 -8 14 -7 0 -11
-6 -8 -14z"/>
<path d="M837 1013 c3 -7 6 -13 8 -13 2 0 5 6 8 13 3 8 -1 14 -8 14 -7 0 -11
-6 -8 -14z"/>
<path d="M640 1011 l-25 -7 26 -5 c17 -4 26 -1 26 8 0 7 -1 13 -1 12 -1 -1
-12 -4 -26 -8z"/>
<path d="M775 1009 c-4 -6 -5 -12 -2 -15 2 -3 7 2 10 11 7 17 1 20 -8 4z"/>
<path d="M814 1006 c1 -8 5 -18 8 -22 4 -3 5 1 4 10 -1 8 -5 18 -8 22 -4 3 -5
-1 -4 -10z"/>
<path d="M713 985 c0 -8 4 -15 9 -15 4 0 8 4 8 9 0 6 -4 12 -8 15 -5 3 -9 -1
-9 -9z"/>
<path d="M787 987 c-3 -8 1 -14 8 -14 7 0 11 6 8 14 -3 7 -6 13 -8 13 -2 0 -5
-6 -8 -13z"/>
<path d="M630 986 c0 -2 7 -7 16 -10 8 -3 12 -2 9 4 -6 10 -25 14 -25 6z"/>
<path d="M674 962 c3 -5 0 -13 -6 -15 -9 -4 -10 -6 -1 -6 17 -1 25 16 12 25
-7 4 -9 3 -5 -4z"/>
<path d="M757 949 c7 -7 15 -10 18 -7 3 3 -2 9 -12 12 -14 6 -15 5 -6 -5z"/>
<path d="M1630 926 c0 -2 7 -7 16 -10 8 -3 12 -2 9 4 -6 10 -25 14 -25 6z"/>
<path d="M2155 910 c3 -6 1 -10 -4 -10 -6 0 -11 -7 -11 -15 0 -16 -12 -20 -24
-8 -3 4 -16 8 -28 10 -12 2 -19 1 -16 -3 3 -3 14 -7 25 -8 19 -3 32 -36 13
-36 -6 0 -8 -4 -5 -10 3 -5 1 -10 -4 -10 -6 0 -11 -6 -11 -14 0 -8 -3 -16 -7
-18 -5 -1 -18 -25 -31 -51 -12 -26 -26 -46 -30 -43 -4 2 -8 -3 -9 -13 -1 -10
-11 -33 -22 -52 -12 -19 -24 -42 -27 -51 -4 -10 -11 -18 -16 -18 -5 0 -7 -4
-3 -9 3 -6 -2 -14 -11 -19 -9 -5 -16 -13 -16 -18 0 -5 -4 -8 -10 -6 -5 1 -7
-2 -4 -7 7 -11 -3 -41 -14 -41 -5 0 -7 11 -4 25 2 14 0 25 -5 25 -5 0 -8 -8
-6 -17 1 -10 -2 -24 -8 -31 -7 -9 -7 -12 0 -10 16 4 15 -9 -2 -43 -11 -21 -21
-29 -32 -25 -12 5 -13 3 -5 -7 14 -17 -13 -61 -31 -50 -7 4 -5 -2 3 -12 13
-17 13 -18 -1 -13 -13 5 -16 2 -12 -13 3 -10 1 -19 -5 -19 -8 0 -25 -41 -19
-47 1 -1 -7 -9 -18 -17 -15 -12 -17 -18 -8 -24 14 -9 853 -16 853 -7 0 3 -11
23 -25 45 -14 22 -25 41 -25 44 0 2 -41 75 -92 162 -134 233 -249 436 -262
461 -6 13 -17 25 -24 28 -7 2 -10 0 -7 -5z"/>
<path d="M1975 901 c6 -10 4 -13 -7 -9 -9 4 -15 0 -15 -8 0 -8 3 -12 5 -9 3 3
10 0 17 -5 8 -7 11 -4 10 10 -1 11 -5 23 -10 27 -4 5 -4 2 0 -6z"/>
<path d="M1740 890 c0 -5 -7 -7 -15 -4 -8 4 -15 2 -15 -4 0 -14 33 -8 38 6 2
7 1 12 -2 12 -3 0 -6 -4 -6 -10z"/>
<path d="M1776 886 c3 -7 11 -13 19 -13 22 0 18 14 -4 20 -13 3 -18 0 -15 -7z"/>
<path d="M1337 879 c7 -7 15 -10 18 -7 3 3 -2 9 -12 12 -14 6 -15 5 -6 -5z"/>
<path d="M1510 876 c0 -2 9 -6 20 -9 11 -3 18 -1 14 4 -5 9 -34 13 -34 5z"/>
<path d="M1474 864 c3 -3 1 -16 -4 -28 -6 -16 -5 -23 4 -23 12 0 15 43 3 52
-4 3 -5 2 -3 -1z"/>
<path d="M1677 857 c4 -6 -1 -8 -11 -4 -11 5 -15 3 -10 -5 5 -8 1 -9 -12 -4
-10 4 -15 4 -11 0 4 -4 2 -12 -3 -19 -7 -8 -5 -12 5 -12 8 0 11 5 8 10 -4 6 1
8 11 4 11 -5 15 -3 10 5 -5 8 -1 9 12 4 10 -4 15 -4 11 0 -4 4 -2 12 3 19 7 8
5 12 -5 12 -8 0 -11 -5 -8 -10z"/>
<path d="M1826 858 c3 -4 13 -12 23 -17 13 -7 18 -6 18 4 0 7 -7 11 -15 7 -9
-3 -13 -1 -9 5 3 5 0 10 -8 10 -8 0 -12 -4 -9 -9z"/>
<path d="M1451 844 c0 -11 3 -14 6 -6 3 7 2 16 -1 19 -3 4 -6 -2 -5 -13z"/>
<path d="M1573 845 c0 -7 6 -11 14 -8 7 3 13 6 13 8 0 2 -6 5 -13 8 -8 3 -14
-1 -14 -8z"/>
<path d="M1753 835 c0 -8 6 -16 13 -19 7 -3 10 2 7 15 -6 22 -20 26 -20 4z"/>
<path d="M2036 833 c-6 -14 -5 -15 5 -6 7 7 10 15 7 18 -3 3 -9 -2 -12 -12z"/>
<path d="M2065 839 c-4 -6 -5 -12 -2 -15 2 -3 7 2 10 11 7 17 1 20 -8 4z"/>
<path d="M1830 823 c0 -5 5 -15 10 -23 7 -12 9 -10 7 8 -1 19 -17 33 -17 15z"/>
<path d="M1515 809 c-4 -6 -5 -12 -2 -15 2 -3 7 2 10 11 7 17 1 20 -8 4z"/>
<path d="M1878 813 c7 -3 16 -2 19 1 4 3 -2 6 -13 5 -11 0 -14 -3 -6 -6z"/>
<path d="M1973 805 c0 -8 5 -11 10 -8 7 4 8 -1 3 -12 -5 -15 -4 -16 9 -5 8 7
15 17 15 23 0 6 -3 7 -7 4 -3 -4 -11 -2 -18 3 -8 7 -12 5 -12 -5z"/>
<path d="M1430 801 c0 -6 4 -12 8 -15 5 -3 9 1 9 9 0 8 -4 15 -9 15 -4 0 -8
-4 -8 -9z"/>
<path d="M1534 798 c-3 -5 -3 -12 0 -15 3 -4 6 -1 6 5 0 6 10 9 21 7 12 -3 19
-1 15 2 -11 11 -35 12 -42 1z"/>
<path d="M1595 801 c-6 -11 13 -26 22 -17 4 3 1 6 -6 6 -7 0 -9 5 -6 10 3 6 4
10 1 10 -3 0 -7 -4 -11 -9z"/>
<path d="M1693 797 c-3 -4 -2 -11 1 -14 3 -4 6 -1 6 5 0 6 11 9 25 6 14 -2 25
-1 25 4 0 11 -50 10 -57 -1z"/>
<path d="M1799 788 c-8 -26 -5 -36 9 -31 10 4 13 2 8 -5 -5 -8 -1 -10 10 -5
11 4 13 8 6 11 -7 2 -10 8 -7 13 4 5 -2 6 -11 2 -12 -4 -15 -3 -10 5 4 7 5 12
2 12 -3 0 -6 -1 -7 -2z"/>
<path d="M1877 773 c3 -7 6 -13 8 -13 2 0 5 6 8 13 3 8 -1 14 -8 14 -7 0 -11
-6 -8 -14z"/>
<path d="M1854 766 c1 -8 5 -18 8 -22 4 -3 5 1 4 10 -1 8 -5 18 -8 22 -4 3 -5
-1 -4 -10z"/>
<path d="M2034 772 c4 -7 2 -21 -5 -30 -12 -15 -11 -15 6 0 16 15 17 20 6 30
-11 11 -13 10 -7 0z"/>
<path d="M1525 759 c-3 -4 2 -6 10 -5 21 3 28 13 10 13 -9 0 -18 -4 -20 -8z"/>
<path d="M1686 762 c-3 -5 1 -9 9 -9 8 0 12 4 9 9 -3 4 -7 8 -9 8 -2 0 -6 -4
-9 -8z"/>
<path d="M1930 758 c0 -6 3 -8 7 -5 3 4 13 1 22 -6 14 -11 14 -10 2 6 -15 20
-31 22 -31 5z"/>
<path d="M1635 733 c1 -10 -1 -23 -6 -28 -5 -7 -1 -11 11 -11 13 0 16 5 11 16
-5 8 -6 21 -4 28 3 6 0 12 -5 12 -6 0 -9 -8 -7 -17z"/>
<path d="M1879 740 c-4 -34 -3 -44 9 -46 7 -1 8 0 3 2 -5 3 -7 16 -5 30 2 13
2 24 -1 24 -3 0 -6 -4 -6 -10z"/>
<path d="M1986 735 c5 -11 4 -16 -3 -12 -5 3 -10 0 -10 -8 0 -10 4 -12 12 -5
7 6 21 7 31 4 11 -4 17 -5 14 -3 -3 2 -15 13 -28 24 -22 18 -23 18 -16 0z"/>
<path d="M1573 725 c0 -7 6 -11 14 -8 7 3 13 6 13 8 0 2 -6 5 -13 8 -8 3 -14
-1 -14 -8z"/>
<path d="M1701 724 c0 -11 3 -14 6 -6 3 7 2 16 -1 19 -3 4 -6 -2 -5 -13z"/>
<path d="M1733 725 c0 -8 7 -11 16 -7 13 5 14 3 4 -9 -10 -12 -8 -15 10 -16
17 -2 19 0 7 7 -14 9 -6 15 15 10 6 -1 8 1 5 3 -3 3 -9 6 -15 7 -5 1 -17 6
-26 10 -11 6 -16 5 -16 -5z"/>
<path d="M1473 723 c4 -3 3 -11 -3 -17 -6 -8 -3 -12 9 -12 12 0 17 6 13 18 -2
10 -9 18 -15 18 -6 0 -7 -3 -4 -7z"/>
<path d="M1913 686 c0 -17 30 -14 33 3 2 7 0 7 -3 1 -3 -7 -9 -8 -17 -1 -9 8
-13 7 -13 -3z"/>
<path d="M1550 681 c0 -6 4 -12 8 -15 5 -3 9 1 9 9 0 8 -4 15 -9 15 -4 0 -8
-4 -8 -9z"/>
<path d="M1690 678 c0 -11 12 -10 30 2 12 7 10 9 -8 7 -12 0 -22 -5 -22 -9z"/>
<path d="M1800 680 c-12 -7 -10 -9 8 -7 12 0 22 5 22 9 0 11 -12 10 -30 -2z"/>
<path d="M1464 640 c-1 -14 1 -19 3 -12 3 6 10 9 16 5 7 -3 9 -3 5 2 -4 4 -4
13 2 19 6 8 3 12 -8 12 -11 0 -17 -9 -18 -26z"/>
<path d="M1588 652 c3 -9 1 -13 -5 -9 -5 3 -10 0 -10 -8 0 -17 14 -10 26 14 7
13 6 18 -4 18 -7 0 -11 -7 -7 -15z"/>
<path d="M1629 664 c5 -3 7 -16 5 -30 -2 -13 0 -24 4 -24 14 0 8 53 -6 56 -7
1 -8 0 -3 -2z"/>
<path d="M1748 651 c4 -10 1 -12 -8 -6 -9 6 -11 4 -6 -4 5 -7 10 -10 13 -7 3
3 13 1 23 -4 12 -6 17 -5 17 5 0 8 -7 11 -16 7 -13 -5 -14 -3 -4 9 10 12 8 15
-6 15 -12 0 -17 -5 -13 -15z"/>
<path d="M1868 648 c2 -10 9 -18 15 -18 6 0 7 3 4 7 -4 3 -3 11 3 17 6 8 3 12
-9 12 -12 0 -17 -6 -13 -18z"/>
<path d="M1953 643 c4 -3 3 -11 -3 -17 -6 -8 -3 -12 9 -12 12 0 17 6 13 18 -2
10 -9 18 -15 18 -6 0 -7 -3 -4 -7z"/>
<path d="M1476 611 c-3 -5 2 -15 12 -22 15 -12 16 -12 5 2 -7 9 -10 19 -6 22
3 4 4 7 0 7 -3 0 -8 -4 -11 -9z"/>
<path d="M1541 612 c-1 -7 -5 -10 -11 -7 -6 4 -7 -1 -3 -11 4 -11 8 -13 11 -6
2 7 8 10 12 7 5 -3 12 0 16 6 4 7 3 9 -4 5 -5 -3 -13 0 -15 6 -4 10 -6 10 -6
0z"/>
<path d="M1693 612 c-7 -4 -9 -13 -4 -21 6 -9 10 -7 14 8 3 12 4 21 4 21 -1 0
-7 -4 -14 -8z"/>
<path d="M1655 601 c-3 -5 -2 -12 3 -15 5 -3 9 1 9 9 0 17 -3 19 -12 6z"/>
<path d="M1719 608 c-5 -18 -6 -38 -1 -34 7 8 12 36 6 36 -2 0 -4 -1 -5 -2z"/>
<path d="M1805 599 c-3 -4 2 -6 10 -5 21 3 28 13 10 13 -9 0 -18 -4 -20 -8z"/>
<path d="M1916 602 c-3 -4 4 -9 15 -9 23 -2 25 3 4 10 -8 4 -16 3 -19 -1z"/>
<path d="M1627 587 c-3 -8 1 -14 8 -14 7 0 11 6 8 14 -3 7 -6 13 -8 13 -2 0
-5 -6 -8 -13z"/>
<path d="M1820 572 c0 -6 -11 -9 -27 -6 -15 3 -25 3 -22 -1 12 -11 49 -14 55
-4 3 6 3 13 0 16 -3 4 -6 1 -6 -5z"/>
<path d="M1673 552 c0 -12 5 -22 9 -22 11 0 10 12 -2 30 -7 12 -9 10 -7 -8z"/>
<path d="M1836 553 c-6 -14 -5 -15 5 -6 7 7 10 15 7 18 -3 3 -9 -2 -12 -12z"/>
<path d="M1588 543 c7 -3 16 -2 19 1 4 3 -2 6 -13 5 -11 0 -14 -3 -6 -6z"/>
<path d="M1628 543 c7 -3 16 -2 19 1 4 3 -2 6 -13 5 -11 0 -14 -3 -6 -6z"/>
<path d="M1747 533 c3 -7 6 -13 8 -13 1 0 7 6 13 13 8 10 6 13 -7 13 -11 0
-17 -6 -14 -13z"/>
<path d="M1877 537 c4 -7 -1 -8 -13 -3 -15 6 -17 5 -6 -5 10 -11 15 -10 28 2
13 14 13 16 0 16 -8 0 -12 -5 -9 -10z"/>
<path d="M1633 498 c2 -7 1 -20 -4 -28 -5 -11 -2 -16 11 -16 12 0 16 4 11 11
-5 5 -7 18 -6 28 2 9 -1 17 -7 17 -5 0 -8 -6 -5 -12z"/>
<path d="M1746 482 c-3 -5 1 -9 9 -9 8 0 15 4 15 9 0 4 -4 8 -9 8 -6 0 -12 -4
-15 -8z"/>
<path d="M1711 454 c6 -7 7 -19 3 -26 -6 -11 -5 -11 8 0 13 10 17 10 21 0 3
-7 4 -3 4 8 -1 15 -6 20 -16 16 -8 -3 -12 -1 -8 5 3 5 0 10 -8 10 -11 0 -12
-4 -4 -13z"/>
<path d="M1797 457 c4 -6 0 -8 -8 -5 -10 4 -15 -1 -16 -16 0 -11 1 -15 4 -8 3
6 8 10 12 8 4 -3 12 3 18 13 9 14 8 18 -3 18 -7 0 -10 -5 -7 -10z"/>
<path d="M1630 400 c0 -5 5 -10 11 -10 5 0 7 5 4 10 -3 6 -8 10 -11 10 -2 0
-4 -4 -4 -10z"/>
<path d="M1706 398 c3 -5 10 -6 15 -3 13 9 11 12 -6 12 -8 0 -12 -4 -9 -9z"/>
<path d="M1796 398 c3 -5 10 -6 15 -3 13 9 11 12 -6 12 -8 0 -12 -4 -9 -9z"/>
<path d="M1677 373 c3 -7 6 -13 8 -13 2 0 5 6 8 13 3 8 -1 14 -8 14 -7 0 -11
-6 -8 -14z"/>
<path d="M1656 367 c3 -10 9 -15 12 -12 3 3 0 11 -7 18 -10 9 -11 8 -5 -6z"/>
<path d="M1740 355 c-11 -13 -10 -14 5 -9 11 5 16 4 12 -3 -3 -5 0 -10 8 -10
10 0 12 4 5 12 -5 7 -7 15 -3 18 3 4 2 7 -4 7 -6 0 -16 -7 -23 -15z"/>
<path d="M1676 318 c3 -5 10 -6 15 -3 13 9 11 12 -6 12 -8 0 -12 -4 -9 -9z"/>
<path d="M1667 294 c2 -7 11 -10 19 -7 19 7 18 10 -5 16 -13 3 -18 1 -14 -9z"/>
<path d="M1750 279 c0 -5 5 -7 10 -4 6 3 10 8 10 11 0 2 -4 4 -10 4 -5 0 -10
-5 -10 -11z"/>
<path d="M1710 263 c5 -2 8 -9 5 -13 -3 -5 -1 -11 4 -14 5 -4 8 2 7 11 -2 9
-8 18 -15 19 -6 1 -7 0 -1 -3z"/>
<path d="M1601 200 c8 -6 7 -9 -2 -13 -8 -3 -4 -4 8 -4 12 1 19 5 17 9 -8 13
11 9 25 -4 11 -10 13 -10 7 0 -4 6 -3 12 3 12 5 0 11 -5 13 -12 2 -6 10 -8 16
-4 25 15 10 23 -43 23 -31 0 -51 -4 -44 -7z"/>
</g>
</svg>
